<?xml version="1.0" encoding="utf-8"?>
<!-- Generator: Adobe Illustrator 25.0.0, SVG Export Plug-In . SVG Version: 6.00 Build 0)  -->
<svg version="1.1" id="Layer_1" xmlns="http://www.w3.org/2000/svg" xmlns:xlink="http://www.w3.org/1999/xlink" x="0px" y="0px"
	 viewBox="0 0 512 512" style="enable-background:new 0 0 512 512;" xml:space="preserve">
<style type="text/css">
	.st0{fill:#131C4B;}
</style>
<g>
	<path class="st0" d="M498.3,282l-55.6-55.6l11.3-11.3c1.8-1.8,2.6-4.3,2.3-6.8l-5.1-35.6l17-17c10.9-10.9,10.9-28.7,0-39.6
		l-70.7-70.7c-50-50-131-50-181,0c-20.1,20.1-32.9,46.2-36.5,74.4C113.5,95.5,40,129.7,15.8,196.1C10.6,210.2,8,225,8,240v100
		c0,15.5,12.5,28,28,28h24l21.6,28.8c1.5,2,3.9,3.2,6.4,3.2h16v68c0,15.5,12.5,28,28,28h8c15.5,0,28-12.5,28-28v-68h16
		c2.5,0,4.9-1.2,6.4-3.2L212,368h24c15.5,0,28-12.5,28-28v-66l23.1,23.1c10.9,10.9,28.7,10.9,39.6,0l17-17l35.6,5.1
		c2.5,0.4,5-0.5,6.8-2.3l11.3-11.3l50.9,50.9c8.9,8.9,22.3,11.8,34.1,7.3c12.7-4.9,20.8-17,21.7-32.6
		C504.2,291.6,502.1,286.1,498.3,282L498.3,282z M180,384h-20c-4.4,0-8,3.6-8,8v76c0,6.6-5.4,12-12,12h-8c-6.6,0-12-5.4-12-12v-76
		c0-4.4-3.6-8-8-8H92l-12-16h112L180,384z M248,340c0,6.6-5.4,12-12,12H36c-6.6,0-12-5.4-12-12V240c0-61.9,50.1-112,112-112
		s112,50.1,112,112V340z M335.2,266C335.2,266,335.2,266,335.2,266l-19.8,19.8c-4.7,4.7-12.3,4.7-17,0L264,251.4V240
		c0-47.6-26.5-91.3-68.7-113.4C200.5,65,254.6,19.2,316.2,24.3c26.4,2.2,51.1,13.7,69.9,32.4l70.7,70.7c4.7,4.7,4.7,12.3,0,17
		L437,164.2h0L335.2,266z M476.7,314.9c-5.9,2.3-12.6,0.8-17-3.6l-56.6-56.6c-3.1-3.1-8.2-3.1-11.3,0l-14.1,14.1l-19.8-2.8
		l79.2-79.2l2.8,19.8l-14.1,14.1c-3.1,3.1-3.1,8.2,0,11.3l61.2,61.2c0.7,0.9,1.1,2,1.2,3.1C487.6,305.6,483.4,312.3,476.7,314.9
		L476.7,314.9z"/>
	<path class="st0" d="M320,336c-22.1,0-40,17.9-40,40s17.9,40,40,40s40-17.9,40-40C360,353.9,342.1,336,320,336z M320,400
		c-13.3,0-24-10.7-24-24s10.7-24,24-24s24,10.7,24,24C344,389.2,333.2,400,320,400z"/>
</g>
</svg>
