<?xml version="1.0" encoding="utf-8"?>
<!-- Generator: Adobe Illustrator 25.0.0, SVG Export Plug-In . SVG Version: 6.00 Build 0)  -->
<svg version="1.1" id="Capa_1" xmlns="http://www.w3.org/2000/svg" xmlns:xlink="http://www.w3.org/1999/xlink" x="0px" y="0px"
	 viewBox="0 0 512 512" style="enable-background:new 0 0 512 512;" xml:space="preserve">
<style type="text/css">
	.st0{fill:#131C4B;}
</style>
<g>
	<path class="st0" d="M502.5,245.9c-30.6,0.5-31.7,12-60.1,12c-29,0-29.5-12-62.1-12c-16.7,0-25.6,3.4-33.4,6.4
		c-1.4-6.8,1.6-14,7.9-17.7l6.7-3.9c12.5,5,26.3,6.1,38.4,0.3c7.2-3.5,37.8-18.3,40.1-19.4c11-5.3,19.8-13.9,25.3-24.7
		c1.9-3.7,0.4-8.2-3.3-10.1c-3.7-1.9-8.2-0.4-10.1,3.3c-3.1,6-7.5,11-12.9,14.8c-0.1-0.1-20.3-35.2-20.3-35.1l0,0l-20.2-35
		c18.6-8.7,41.2-2.6,52.2,16c1.9,3.1,3.3,6.5,4.3,10c1.1,4,5.2,6.3,9.2,5.2c4-1.1,6.3-5.2,5.2-9.2c-1.3-4.8-3.3-9.3-5.8-13.6
		c-16.5-27.8-52.6-35.6-79.6-17.3c-25.5,17.4-5.6,3.8-36.4,24.8c-11.4,7.7-17.1,20.6-18.9,33.4l-6.7,3.8c-7.9,4.6-18,1.9-22.6-6
		l-56-97c-5.9-10.2-18-15.2-29.4-12.2L56,104.9c-4.6,1.2-8.5,4.2-10.9,8.4c-2.4,4.2-3,9-1.8,13.7c4.2,15.6,19.5,24.8,34.6,22.3
		c2,7.9,8.2,14.4,16.7,16.3c11.6,2.6,23.2-4.6,26.3-16.4l3.2-11.8l50-9c9.9-1.8,19.4-5.5,27.9-10.8c1.1,7.6,3.7,15,7.6,21.7
		c6.7,11.5,6.7,11.7,8,13.7c7.8,12.3,4,28.5-8.6,35.7l-26.4,15.3c-3.6,2.1-4.8,6.7-2.7,10.2c2.1,3.6,6.7,4.8,10.2,2.7l26.4-15.3
		c19.9-11.5,26.2-37.2,13.8-56.8c-0.9-1.5-1-1.6-7.7-13.2c-4.3-7.4-6.4-15.8-6.2-24.4c0.1-3.7-2-7.1-5.3-8.8
		c-3.3-1.6-7.3-1.1-10.2,1.2c-8.5,7-18.6,11.8-29.5,13.7l-54.7,9.8c-2.9,0.5-5.2,2.6-5.9,5.4l-4.4,16.4c-1,3.9-4.9,6.4-8.6,5.6
		c-4-0.9-6.5-4.9-5.4-8.9c0.7-2.7-0.1-5.5-2-7.5c-2-1.9-4.8-2.7-7.5-2l-5.9,1.6c-8.4,2.2-16.9-2.7-19.2-11.1
		c-0.4-1.6,0.5-3.3,2.1-3.7L217.9,77c4.9-1.3,10,0.8,12.5,5.2l56,97c8.6,14.9,27.1,19.9,41.9,12.2c0.8,7.1,2.6,13.4,5,17.6
		c2.5,4.2,7,9,12.8,13.2c-11.7,7.4-16.9,21.5-13.6,34.4c-3.9,0.7-8.5,1.2-14.4,1.2c-29.1,0-29.5-12-62.1-12c-32.3,0-33.3,12-62.1,12
		c-26.9,0-28.4-9.8-54.2-11.7l19-11c3.6-2.1,4.8-6.7,2.7-10.2c-2.1-3.6-6.7-4.8-10.2-2.7l-50.5,29.2c-0.9,0.3-1.8,0.7-2.6,1
		c-7.3,2.8-14.2,5.5-28.4,5.5c-28.5,0-29.3-11.5-60.1-12c-5.1-0.1-9.5,4-9.5,9.3V441c0,5.1,4.2,9.3,9.3,9.3h493.3
		c5.1,0,9.3-4.2,9.3-9.3V328.6c0-4.1-3.4-7.5-7.5-7.5s-7.5,3.4-7.5,7.5v106.8H15V261.1c21.4,1.7,25.1,11.7,54.6,11.7
		c32.4,0,33.2-12,62.1-12c29.1,0,29.5,12,62.1,12c32.3,0,33.3-12,62.1-12c29,0,29.5,12,62.1,12c32.8,0,32.9-12,62.1-12
		c29,0,29.5,12,62.1,12c29.6,0,33.1-10,54.6-11.7v32.4c0,4.1,3.4,7.5,7.5,7.5s7.5-3.4,7.5-7.5v-38.4
		C512,249.8,507.6,245.8,502.5,245.9L502.5,245.9z M409.5,173.8l16.2,28.1c-3,1.4-7.8,3.8-7.9,3.8c-3.8,1.8-8.4,0.4-10.6-3.3
		l-7.8-13.4c-2.2-3.9-0.9-8.9,3-11.1L409.5,173.8z M378.5,137.7c0.2-0.1,1.2-0.8,7.3-5l16.2,28.1l-7.1,4.1c-3.9,2.2-8.9,0.9-11.1-3
		l-7.8-13.4C373.9,144.8,375,140.1,378.5,137.7L378.5,137.7z M356,152.9l4.6-3.1c0.5,2.1,1.3,4.2,2.4,6.1l7.8,13.4
		c2.9,5.1,7.5,8.8,13.1,10.5c-1.2,5.5-0.5,11.4,2.5,16.6l7.8,13.4c1.1,2,2.5,3.7,4.1,5.2l-5,2.4c-17.1,8.2-41.8-6.9-47-15.9
		C341.1,192.6,340.3,163.6,356,152.9z"/>
	<path class="st0" d="M227.6,326.6c7.3-2.8,14.2-5.5,28.4-5.5c4.1,0,7.5-3.4,7.5-7.5s-3.4-7.5-7.5-7.5c-16.9,0-25.9,3.5-33.8,6.5
		c-7.3,2.8-14.2,5.5-28.4,5.5s-21-2.7-28.4-5.5c-7.9-3-16.8-6.5-33.8-6.5c-16.9,0-25.9,3.5-33.8,6.5c-7.3,2.8-14.2,5.5-28.4,5.5
		c-4.1,0-7.5,3.4-7.5,7.5s3.4,7.5,7.5,7.5c16.9,0,25.9-3.5,33.8-6.5c7.3-2.8,14.2-5.5,28.4-5.5c14.1,0,21,2.7,28.4,5.5
		c7.9,3,16.8,6.5,33.8,6.5S219.7,329.6,227.6,326.6z"/>
	<path class="st0" d="M193.9,393.3c16.9,0,25.9-3.5,33.8-6.5c7.3-2.8,14.2-5.5,28.4-5.5c14.1,0,21,2.7,28.4,5.5
		c7.9,3,16.8,6.5,33.8,6.5s25.9-3.5,33.8-6.5c7.3-2.8,14.2-5.5,28.4-5.5s21,2.7,28.4,5.5c7.9,3,16.8,6.5,33.8,6.5
		c4.1,0,7.5-3.4,7.5-7.5s-3.4-7.5-7.5-7.5c-14.1,0-21-2.7-28.4-5.5c-7.9-3-16.8-6.5-33.8-6.5s-25.9,3.5-33.8,6.5
		c-7.3,2.8-14.2,5.5-28.4,5.5s-21-2.7-28.4-5.5c-7.9-3-16.8-6.5-33.8-6.5c-16.9,0-25.9,3.5-33.8,6.5c-7.3,2.8-14.2,5.5-28.4,5.5
		c-4.1,0-7.5,3.4-7.5,7.5S189.7,393.3,193.9,393.3L193.9,393.3z"/>
	<path class="st0" d="M288,242.9c4-1,6.4-5.1,5.4-9.1l-5.5-21.7c-1-4-5.1-6.4-9.1-5.4c-4,1-6.4,5.1-5.4,9.1l5.5,21.7
		C279.9,241.5,284,244,288,242.9z"/>
</g>
</svg>
