<?xml version="1.0" encoding="utf-8"?>
<!-- Generator: Adobe Illustrator 25.0.0, SVG Export Plug-In . SVG Version: 6.00 Build 0)  -->
<svg version="1.1" id="Capa_1" xmlns="http://www.w3.org/2000/svg" xmlns:xlink="http://www.w3.org/1999/xlink" x="0px" y="0px"
	 viewBox="0 0 512 512" style="enable-background:new 0 0 512 512;" xml:space="preserve">
<style type="text/css">
	.st0{fill:#131C4B;}
</style>
<g>
	<path class="st0" d="M392.6,355.2c-0.6-0.1-1.2-0.1-1.7,0c-19.8,0.2-39.5,7.9-54.6,22.9c0,0,0,0,0,0c-14.7,14.7-22.8,34.1-23,54.8
		c0,0.3,0,0.6,0,1c0.1,20.8,8.2,40.4,23,55.2c15.1,15.1,34.9,22.7,54.7,22.9c0.3,0,0.6,0.1,0.9,0.1c0.2,0,0.5,0,0.7-0.1
		c19.8-0.2,39.6-7.8,54.7-22.9c14.7-14.7,22.8-34.1,23-54.8c0-0.3,0-0.6,0-1c-0.1-20.8-8.2-40.4-23-55.2
		C432.1,363,412.4,355.4,392.6,355.2z M386.8,496.8c-14.6-1.1-28.8-7.2-39.9-18.3c-10.8-10.8-17.2-24.8-18.4-39.9
		c16.3-5.3,34.7-1.1,47,11.3C387.8,462.1,392.1,480.4,386.8,496.8z M436.6,478.4C427,488,415,493.9,402.5,496
		c4.6-20.2-1.4-41.9-16.4-56.9c-15-15-36.7-20.9-56.9-16.4c2.2-12.9,8.3-24.7,17.7-34.1h0c9.6-9.6,21.6-15.5,34.1-17.6
		c-4.6,20.2,1.4,41.9,16.4,56.9c11.7,11.7,27.5,17.9,43.4,17.9c4.5,0,9-0.5,13.5-1.5C452.1,457.2,446,469,436.6,478.4L436.6,478.4z
		 M408,417.3c-12.3-12.3-16.5-30.6-11.2-47c14.6,1.1,28.8,7.2,39.9,18.3c10.8,10.8,17.2,24.8,18.4,39.9
		C438.7,433.9,420.3,429.7,408,417.3L408,417.3z"/>
	<path class="st0" d="M474.3,37.2c-28.6-28.6-69.5-41.4-115.1-36C314.2,6.5,270,29,234.6,64.4c-2.9,2.9-2.9,7.7,0,10.6
		c2.9,2.9,7.7,2.9,10.6,0C312.9,7.3,410.9-4.9,463.7,47.8c25.3,25.3,36.6,61.8,31.7,102.7c-4.9,41.6-25.9,82.7-58.9,115.7
		c-39.4,39.4-89,59.9-134,59.9c-6.6,0-13.1-0.5-19.5-1.4c-0.1,0-0.2,0-0.3,0c-24.8-3.5-47.3-13.9-64.8-31.4
		c-45.1-45.1-43.4-125.5,4.1-191.3c2.4-3.4,1.7-8-1.7-10.5c-3.4-2.4-8-1.7-10.5,1.7c-24.7,34.3-38.8,74-39.7,111.9
		c-0.2,8,0.2,15.8,1.2,23.4c0,0.3,0,0.6,0.1,0.8c3.4,19.1-8.9,71.5-45.3,107.9l-2.2,2.2c-5-1.3-10.5,0-14.4,3.9l-70.4,70.4
		c-3.5-1.9-7.5-2.8-11.7-2.8c0,0,0,0,0,0c-6.7,0-13,2.6-17.7,7.3l-2.1,2.1c-4.7,4.7-7.3,11-7.3,17.8c0,6.7,2.6,13,7.3,17.8
		l47.7,47.7h0c4.9,4.9,11.3,7.3,17.8,7.3c6.4,0,12.9-2.4,17.8-7.3l2-2c4.7-4.7,7.3-11,7.3-17.8c0-4.1-1-8.1-2.8-11.6l70.4-70.4
		c2.8-2.8,4.4-6.6,4.4-10.6c0-1.3-0.2-2.6-0.5-3.8l2.1-2.1c5.5-5.4,11.5-10.5,17.8-15.1c3.4-2.4,4.1-7.1,1.7-10.5
		c-2.4-3.4-7.1-4.1-10.5-1.7c-6.9,5-13.5,10.6-19.6,16.7l-0.7,0.7l-26.6-26.6l0.7-0.7c23.7-23.7,38.6-54.4,45.5-80.4
		c6.1,13.6,14.5,25.9,25,36.4c10.5,10.5,22.7,18.9,36.1,25c-9.8,2.7-20.1,6.4-30.1,11.1c-3.8,1.8-5.4,6.2-3.6,10
		c1.3,2.7,4,4.3,6.8,4.3c1.1,0,2.1-0.2,3.2-0.7c24.4-11.4,47-15.3,59.3-14.2c7.6,1.2,15.3,1.8,23.3,1.8c6.6,0,13.3-0.4,20.2-1.2
		c44.9-5.3,89.2-27.8,124.6-63.2c35.4-35.4,57.9-79.6,63.2-124.6C515.7,106.7,502.9,65.8,474.3,37.2L474.3,37.2z M82.5,490.9l-2,2
		c-3.9,3.9-10.4,3.9-14.3,0h0l-47.7-47.7c-1.9-1.9-2.9-4.4-2.9-7.2s1-5.3,2.9-7.1l2.1-2.1c1.9-1.9,4.4-2.9,7.1-2.9h0
		c2.6,0,5,1,6.9,2.7c0.1,0.1,0.2,0.2,0.3,0.3c0.2,0.2,0.4,0.4,0.6,0.5L81.9,476c0.2,0.2,0.4,0.5,0.6,0.7c0.1,0.1,0.3,0.3,0.4,0.4
		c1.6,1.8,2.5,4.2,2.5,6.7C85.5,486.4,84.4,489,82.5,490.9z M87.8,460.7l-37.1-37.1l41.9-41.9l37.2,37.1L87.8,460.7z M156.8,390.5
		c0.2,0.2,0.4,0.5,0.6,0.7l-17.1,17.1l-37.2-37.1l17.1-17.1L156.8,390.5z"/>
	<path class="st0" d="M240.7,270.7c15.7,15.7,37.2,23.9,61.9,23.9c6.5,0,13.3-0.6,20.2-1.7c32.2-5.4,64.5-22.9,90.9-49.3
		c0,0,0,0,0,0v0c26.4-26.4,43.9-58.7,49.3-90.9c5.5-33.1-2.3-62.3-22.1-82.1c0,0,0,0,0,0c-19.8-19.8-49-27.7-82.1-22.1
		c-32.2,5.4-64.5,22.9-90.9,49.3c0,0,0,0,0,0s0,0,0,0c-26.4,26.4-43.9,58.7-49.3,90.9C213,221.7,220.9,250.9,240.7,270.7
		L240.7,270.7z M272.4,274c-7.9-3.2-15-7.8-21.1-13.9c-6-6-10.6-13.1-13.9-21.1c0.7-0.3,1.3-0.8,1.9-1.4l31.6-31.5l34.5,34.4
		L273.8,272C273.2,272.6,272.8,273.3,272.4,274z M352.8,193.1L316,229.9l-34.5-34.4l36.8-36.8L352.8,193.1z M328.9,148.1l36.8-36.8
		l34.5,34.4l-36.8,36.8L328.9,148.1z M288.6,278.5l27.3-27.3l22.5,22.5C321.1,279.2,304,280.9,288.6,278.5z M353.7,267.6l-27.1-27.1
		l36.8-36.8l34.4,34.3C383.9,250.8,368.9,260.7,353.7,267.6z M408.3,227.5L374,193.1l36.8-36.8l27.1,27.1
		C430.8,199,420.8,213.9,408.3,227.5L408.3,227.5z M448.3,150.2c-1,6-2.5,12.1-4.4,18.1l-22.5-22.5l27.3-27.3
		C450.3,128.2,450.1,138.9,448.3,150.2L448.3,150.2z M409.2,67.3c7.9,3.2,15,7.8,21.1,13.9c6,6,10.6,13.1,13.9,21.1
		c-0.7,0.3-1.3,0.8-1.9,1.4l-31.5,31.5l-34.4-34.4l31.5-31.5C408.4,68.6,408.9,68,409.2,67.3L409.2,67.3z M378.8,61.7
		c4.9,0,9.6,0.4,14.2,1.1l-27.3,27.3l-22.5-22.5C355.4,63.7,367.4,61.7,378.8,61.7L378.8,61.7z M328,73.6l27.1,27.1l-36.8,36.8
		l-34.4-34.3C297.7,90.5,312.7,80.5,328,73.6z M273.3,113.8l34.4,34.3l-36.8,36.8l-27.1-27.1C250.8,142.3,260.8,127.3,273.3,113.8
		L273.3,113.8z M233.4,191.1c1-6,2.5-12.1,4.5-18l22.5,22.4L233,222.8C231.4,213,231.5,202.3,233.4,191.1z"/>
</g>
</svg>
