<?xml version="1.0" ?><svg id="Layer_1" style="enable-background:new 0 0 256 256;" version="1.1" viewBox="0 0 256 256" xml:space="preserve" xmlns="http://www.w3.org/2000/svg" xmlns:xlink="http://www.w3.org/1999/xlink"><style type="text/css">
	.st0{fill:none;stroke:#000000;stroke-width:8;stroke-linejoin:round;stroke-miterlimit:10;}
	.st1{fill:none;stroke:#000000;stroke-width:8;stroke-miterlimit:10;}
	.st2{fill:none;stroke:#000000;stroke-width:8;stroke-miterlimit:10;stroke-dasharray:16,16;}
	.st3{fill:none;stroke:#000000;stroke-width:8;stroke-linecap:round;stroke-linejoin:round;stroke-miterlimit:10;}
	.st4{display:none;fill:none;stroke:#000000;stroke-miterlimit:10;}
</style><rect class="st4" height="240" width="240" x="8" y="8"/><g><circle class="st0" cx="130.646" cy="82.456" r="15.411"/><polyline class="st0" points="198.332,87.088 143.789,116.132 103.171,107.741 57.668,67.044  "/><g><ellipse class="st0" cx="105.004" cy="21.869" rx="18.415" ry="23.341" transform="matrix(0.8037 0.5951 -0.5951 0.8037 33.6296 -58.1918)"/><line class="st0" x1="57.668" x2="90.993" y1="85.939" y2="40.934"/></g><g><path class="st0" d="M135.602,43.156L135.602,43.156c-1.047-1.047-1.047-2.745,0-3.793l1.394-1.394l3.793,3.793l-1.394,1.394    C138.347,44.204,136.649,44.204,135.602,43.156z"/><line class="st3" x1="136.94" x2="141.82" y1="37.914" y2="30.077"/><line class="st3" x1="140.789" x2="148.626" y1="41.762" y2="36.882"/></g></g><path class="st0" d="M145,126v60l-27.269,64.13c-1.514,3.559-5.007,5.87-8.875,5.87h0c-6.428,0-11.057-6.171-9.259-12.342  L115.235,190l-28.345,24.947c-7.334,6.455-18.171,6.938-26.051,1.161l-28.704-21.045c-5.276-3.868-5.58-11.641-0.622-15.909l0,0  c3.523-3.032,8.653-3.291,12.462-0.627l25.484,17.817L98,172.5v-56.368"/></svg>