<?xml version="1.0" encoding="utf-8"?>
<!-- Generator: Adobe Illustrator 25.0.0, SVG Export Plug-In . SVG Version: 6.00 Build 0)  -->
<svg version="1.1" id="Layer_1" xmlns="http://www.w3.org/2000/svg" xmlns:xlink="http://www.w3.org/1999/xlink" x="0px" y="0px"
	 viewBox="0 0 512 512" style="enable-background:new 0 0 512 512;" xml:space="preserve">
<style type="text/css">
	.st0{fill:#131C4B;}
</style>
<path class="st0" d="M322.7,39.3c-16,16-16,42,0,58s42,16,58,0c16-16,16-42,0-58C364.7,23.3,338.8,23.3,322.7,39.3z M331.2,47.8
	c5.4-5.4,12.8-8.5,20.5-8.5c1.8,0,3.6,0.2,5.4,0.5c-7.1,3.9-13.7,8.8-19.4,14.6c-5.8,5.7-10.7,12.2-14.6,19.3
	C321.4,64.3,324.4,54.6,331.2,47.8z M331.2,88.8c-0.9-2.2,2.2-13.1,15.1-26s23.7-16,26-15.1c0.9,2.2-2.2,13.1-15.1,26
	S333.5,89.7,331.2,88.8L331.2,88.8z M372.3,88.8c-6.8,6.8-16.5,9.8-25.9,8c7.1-3.9,13.7-8.8,19.4-14.6c5.8-5.7,10.7-12.2,14.6-19.4
	C382.1,72.3,379.1,82,372.3,88.8L372.3,88.8z"/>
<path class="st0" d="M481,448.3V110.9c0-9.7-7.8-17.5-17.5-17.5s-17.5,7.8-17.5,17.5V124c-62.6,12.1-126.2,18.2-190,18.3
	c-63.8,0-127.4-6.1-190-18.3v-13.1c0-9.5-7.6-17.3-17.2-17.5c-9.8-0.2-17.8,8.2-17.8,18V166c0,3.3,2.7,6,6,6c3.3,0,6-2.7,6-6v-54.9
	c0-2.9,2.1-5.4,5-5.7c3-0.3,5.7,1.9,6,5c0,0.2,0,0.4,0,0.5v11.8c-0.6,0.2-1.1,0.5-1.6,0.9c-1.4,1.1-2.3,2.8-2.4,4.6v140.3
	c0,2.6,1.6,5,4,6.1V448H43V206c0-3.3-2.7-6-6-6s-6,2.7-6,6v242.3c-13.5,0.9-24,12.1-24,25.6v4.9c-0.1,3.3,2.6,6.1,5.9,6.3h71.3
	c3.3-0.1,5.9-2.9,5.8-6.3v-4.9c0-13.6-10-24.8-24-25.6V277.1C128.6,289,192.2,295,256,295h0.5c63.6,0,127-5.9,189.5-17.7v171
	c-14,0.8-24,12-24,25.6v4.9c-0.1,3.3,2.5,6.1,5.8,6.2h71.3c3.3-0.1,6-2.9,5.9-6.3v-4.9C504.9,460.4,494.4,449.3,481,448.3L481,448.3
	z M78.2,473H19c0.6-7,6.5-13,13.6-13h32C71.7,460,77.6,466,78.2,473z M90,269.4c-9.2-1.6-18-3.2-28-5.1v-18.7
	c10,1.8,18.8,3.4,28,4.9V269.4z M90,238.5c-9.2-1.5-18-3.2-28-5v-25.8c10,1.8,18.8,3.4,28,4.9V238.5z M90,200.5
	c-9.2-1.5-18-3.2-28-5v-25.8c10,1.8,18.8,3.4,28,4.9V200.5z M90,162.5c-9.2-1.5-18-3.2-28-5v-22c10,1.8,18.8,3.4,28,5V162.5z
	 M130,275.4c-9.4-1.2-18.7-2.5-28-4v-18.9c9.3,1.4,18.6,2.7,28,3.9V275.4z M130,244.3c-9.4-1.2-18.7-2.5-28-3.9v-25.9
	c9.3,1.4,18.6,2.7,28,3.9V244.3z M130,206.3c-9.4-1.2-18.7-2.5-28-3.9v-25.9c9.3,1.4,18.6,2.7,28,3.9V206.3z M130,168.3
	c-9.4-1.2-18.7-2.5-28-3.9v-22c9.3,1.4,18.6,2.7,28,3.9V168.3z M170,279.7c-9.3-0.8-18.7-1.8-28-2.8v-19c9.3,1,18.7,2,28,2.7V279.7z
	 M170,248.5c-9.3-0.8-18.7-1.7-28-2.8v-25.9c9.3,1,18.7,2,28,2.7V248.5z M170,210.5c-9.3-0.8-18.7-1.7-28-2.8v-25.9
	c9.3,1,18.7,2,28,2.7V210.5z M170,172.5c-9.3-0.8-18.7-1.7-28-2.8v-22c9.3,1.1,18.7,2,28,2.8V172.5z M210,282.3
	c-9.3-0.4-18.7-1-28-1.7v-19.1c9.3,0.7,18.7,1.2,28,1.6V282.3z M210,251.1c-9.3-0.4-18.7-1-28-1.7v-26c9.3,0.7,18.7,1.2,28,1.6
	V251.1z M210,213.1c-9.3-0.4-18.7-1-28-1.7v-26c9.3,0.7,18.7,1.2,28,1.6V213.1z M210,175.1c-9.3-0.4-18.7-1-28-1.7v-22
	c9.3,0.7,18.7,1.2,28,1.7V175.1z M250,283.4c-9.3-0.1-18.7-0.3-28-0.6v-19.2c9.3,0.3,18.7,0.5,28,0.5V283.4z M250,252.2
	c-9.3-0.1-18.7-0.2-28-0.6v-26c9.3,0.3,18.7,0.5,28,0.6V252.2z M250,214.2c-9.3-0.1-18.7-0.2-28-0.6v-26c9.3,0.3,18.7,0.5,28,0.6
	V214.2z M250,176.2c-9.3-0.1-18.7-0.2-28-0.6v-22c9.3,0.3,18.7,0.5,28,0.6V176.2z M458,275c2.3-0.8,3.9-3,4-5.5V128.2
	c-0.1-1.8-0.9-3.5-2.4-4.6c-0.5-0.4-1-0.7-1.6-0.9v-11.8c0-3,2.5-5.5,5.5-5.5s5.5,2.5,5.5,5.5V448h-11V275z M422,140.5
	c9.2-1.5,18-3.2,28-5v22c-10,1.8-18.8,3.5-28,5V140.5z M422,174.6c9.2-1.5,18-3.2,28-4.9v25.8c-10,1.8-18.8,3.5-28,5V174.6z
	 M422,212.6c9.2-1.5,18-3.2,28-4.9v25.8c-10,1.8-18.8,3.5-28,5V212.6z M290,282.8c-9.3,0.3-18.7,0.5-28,0.5v-19.2
	c9.3-0.1,18.7-0.2,28-0.5V282.8z M290,251.6c-9.3,0.3-18.7,0.5-28,0.6v-26c9.3-0.1,18.7-0.2,28-0.5V251.6z M290,213.6
	c-9.3,0.3-18.7,0.5-28,0.6v-26c9.3-0.1,18.7-0.2,28-0.5V213.6z M290,175.6c-9.3,0.3-18.7,0.5-28,0.6v-22c9.3-0.1,18.7-0.2,28-0.6
	V175.6z M330,280.7c-9.3,0.7-18.7,1.2-28,1.7v-19.2c9.3-0.4,18.7-1,28-1.6V280.7z M330,249.5c-9.3,0.7-18.7,1.2-28,1.7v-26
	c9.3-0.4,18.7-1,28-1.6V249.5z M330,211.5c-9.3,0.7-18.7,1.2-28,1.7v-26c9.3-0.4,18.7-1,28-1.6V211.5z M330,173.5
	c-9.3,0.7-18.7,1.2-28,1.7v-22c9.3-0.4,18.7-1,28-1.7V173.5z M370,276.9c-9.3,1.1-18.7,2-28,2.8v-19.2c9.3-0.8,18.7-1.7,28-2.7
	V276.9z M370,245.8c-9.3,1.1-18.7,2-28,2.8v-26c9.3-0.8,18.7-1.7,28-2.7V245.8z M370,207.8c-9.3,1.1-18.7,2-28,2.8v-26
	c9.3-0.8,18.7-1.7,28-2.7V207.8z M370,169.8c-9.3,1.1-18.7,2-28,2.8v-22c9.3-0.8,18.7-1.7,28-2.8V169.8z M410,271.5
	c-9.3,1.4-18.6,2.8-28,3.9v-19.1c9.4-1.2,18.7-2.5,28-3.9V271.5z M410,240.4c-9.3,1.4-18.6,2.7-28,3.9v-25.9
	c9.4-1.2,18.7-2.5,28-3.9V240.4z M410,202.4c-9.3,1.4-18.6,2.7-28,3.9v-25.9c9.4-1.2,18.7-2.5,28-3.9V202.4z M410,164.4
	c-9.3,1.4-18.6,2.7-28,3.9v-22c9.4-1.2,18.7-2.5,28-3.9V164.4z M422,269.6v-18.9c9.2-1.5,18-3.2,28-4.9v18.9
	C440,266.4,431.2,268,422,269.6L422,269.6z M433.8,473c0.6-7,6.5-13,13.6-13h32c7.2,0,13,6,13.6,13H433.8z"/>
<path class="st0" d="M86,406.4c-3.3,0-6,2.7-6,6v19c0,3.3,2.7,6,6,6s6-2.7,6-6v-19C92,409.1,89.3,406.4,86,406.4z"/>
<path class="st0" d="M86,332.7c-3.3,0-6,2.7-6,6v51.6c0,3.3,2.7,6,6,6s6-2.7,6-6v-51.6C92,335.4,89.3,332.7,86,332.7L86,332.7z"/>
<path class="st0" d="M86,305.5c-3.3,0-6,2.7-6,6v4.8c0,3.3,2.7,6,6,6s6-2.7,6-6v-4.8C92,308.2,89.3,305.5,86,305.5z"/>
</svg>
