<?xml version="1.0" encoding="utf-8"?>
<!-- Generator: Adobe Illustrator 25.0.0, SVG Export Plug-In . SVG Version: 6.00 Build 0)  -->
<svg version="1.1" id="Icons" xmlns="http://www.w3.org/2000/svg" xmlns:xlink="http://www.w3.org/1999/xlink" x="0px" y="0px"
	 viewBox="0 0 512 512" style="enable-background:new 0 0 512 512;" xml:space="preserve">
<style type="text/css">
	.st0{fill:#131C4B;}
</style>
<path class="st0" d="M491.2,359.8H337.5v-13.8h146.8V27.7H27.7v34.6H13.8V20.8c0-3.8,3.1-6.9,6.9-6.9h470.5c3.8,0,6.9,3.1,6.9,6.9
	v332.1C498.2,356.7,495.1,359.8,491.2,359.8z"/>
<path class="st0" d="M174.5,359.8H20.8c-3.8,0-6.9-3.1-6.9-6.9V89.9h13.8v256h146.8V359.8z"/>
<path class="st0" d="M449.7,318.3h-77.3v-13.8h70.4V69.2H69.2v235.2h70.4v13.8H62.3c-3.8,0-6.9-3.1-6.9-6.9V62.3
	c0-3.8,3.1-6.9,6.9-6.9h387.5c3.8,0,6.9,3.1,6.9,6.9v249.1C456.6,315.2,453.6,318.3,449.7,318.3z"/>
<path class="st0" d="M352.9,332.1H159.1c-15.3,0-27.7-12.4-27.7-27.7c0-15.3,12.4-27.7,27.7-27.7h27.7v13.8h-27.7
	c-7.6,0-13.8,6.2-13.8,13.8s6.2,13.8,13.8,13.8h193.7c7.6,0,13.8-6.2,13.8-13.8s-6.2-13.8-13.8-13.8H214.5v-13.8h138.4
	c15.3,0,27.7,12.4,27.7,27.7C380.5,319.7,368.1,332.1,352.9,332.1z"/>
<path class="st0" d="M325.2,491.2h-13.8V387.5c0-1.2,0.3-2.3,0.9-3.4l34.6-62.3l12.1,6.7l-33.7,60.7V491.2z"/>
<path class="st0" d="M200.6,491.2h-13.8v-102l-33.7-60.7l12.1-6.7l34.6,62.3c0.6,1,0.9,2.2,0.9,3.4L200.6,491.2z"/>
<path class="st0" d="M283.7,491.2h-13.8V373.6c0-1.2,0.3-2.4,0.9-3.5l27.7-48.4l12,6.9l-26.8,46.9V491.2z"/>
<path class="st0" d="M242.2,491.2h-13.8V375.5l-26.8-46.8l12-6.9l27.7,48.4c0.6,1,0.9,2.2,0.9,3.4V491.2z"/>
<path class="st0" d="M182.2,359.8h147.6v13.8H182.2V359.8z"/>
<path class="st0" d="M193.7,408.2h124.5v13.8H193.7V408.2z"/>
<path class="st0" d="M193.7,456.6h124.5v13.8H193.7V456.6z"/>
</svg>
