<?xml version="1.0" encoding="utf-8"?>
<!-- Generator: Adobe Illustrator 25.0.0, SVG Export Plug-In . SVG Version: 6.00 Build 0)  -->
<svg version="1.1" id="Layer_1" xmlns="http://www.w3.org/2000/svg" xmlns:xlink="http://www.w3.org/1999/xlink" x="0px" y="0px"
	 viewBox="0 0 512 512" style="enable-background:new 0 0 512 512;" xml:space="preserve">
<style type="text/css">
	.st0{fill:#131C4B;}
</style>
<path class="st0" d="M434.2,21.1l-7.5-0.7c-4.5-0.7-8.9-2.1-13.1-4.1l-9.7-4.7c-4.4-2.1-9.5-2.1-13.8,0.1c-4,2-6.9,5.7-7.8,10.1
	c-0.1,0.4-0.1,0.8-0.2,1.2c0,0.2,0,0.3,0,0.5l-0.2,7.5c-0.1,1.9-0.6,3.9-1.5,5.6l-7.2,13.8c-4.1,1.6-7.4,4.7-9.1,8.8l-52.4,123.4
	c-0.5,1.3-1.4,2.4-2.5,3.2l-7.1,5.4c-1.6-10.7-10-19-20.7-20.5l-61-8.8c-6.6-0.9-13.2,0.7-18.6,4.7l-26.2,19.7
	c-2.4-5.3-5.6-10.2-9.5-14.4c-9.9-10.7-23.7-17-38.3-17.5c-29.9-1.1-55.3,21.6-56.5,50.7c-0.5,13.2,4,26,12.7,36l-9.8,3
	c-4.6,0.8-8.5,4-10.1,8.4c-1.6,4.5-0.5,9.5,2.8,13l6.2,6.6c2.5,2.6,5.9,4.1,9.6,4.1c0.9,0,1.7-0.1,2.6-0.2c3.9-0.7,7.2-3.2,9-6.6
	l0.6,5.4c0.3,3,2.9,5.4,6,5.4c0.2,0,0.4,0,0.6,0c3.3-0.4,5.7-3.3,5.3-6.6l-1.8-17.1c0-0.1,0-0.2-0.1-0.3c5.9,2.4,12.3,3.7,18.7,3.9
	c0.7,0,1.4,0,2.1,0c8.7,0,17.2-2,25-5.9c-0.1,3.9,0.5,7.9,1.8,11.6c2.8,8.7,9.7,25.2,23.5,38.3c13.6,12.8,30.5,19.3,50.3,19.3
	c4.9,0,9.8-0.4,14.7-1.1c4.7-0.7,8.9-3.4,11.5-7.4c0.1-0.1,0.1-0.2,0.2-0.4l10.5,1.5l0.1,0c3.1,0.4,6.3-0.1,9.1-1.4
	c5.4,4.4,12.1,7.1,19,7.6l-7.6,118.9c-0.3,4.4,1.3,8.7,4.3,11.9c0.8,0.8,1.6,1.6,2.5,2.2l-2.1,7.5c-0.8,2.6-2.8,4.7-5.4,5.5
	c-5.8,2-11.9,2.9-18,2.6c-9-0.2-16.4,6.9-16.6,15.8c0,0.4,0,0.9,0,1.3c0.5,8.1,7.4,14.3,15.6,13.9c0.4,0,0.7-0.1,1.1-0.1l10.6-0.5
	c0.2,0,0.4,0,0.6-0.1c4.2-0.6,8.4-0.5,12.6,0.2c0.2,0,0.5,0.1,0.8,0.1l14.7,0.7c0.7,0.1,1.4,0.1,2.1,0.1c3.7,0,7.2-1.4,9.9-3.8
	c3.4-2.9,5.2-7.2,5-11.6c0-0.2,0-0.5-0.1-0.8l0-3.6c0-2.5-0.2-4.9-0.4-7.2c-0.5-6.1-0.7-10,1.7-13.2c1-1.4,2.1-2.7,3.4-3.8h3.4
	c8.6,0.1,15.8-6.5,16.5-15.1l10-152.3l56.7-210c1.7-6.5-0.8-13.4-6.3-17.2c0.2-5.3,3.8-9.9,6.1-12.4c0.6-0.6,1.4-1,2.3-0.9
	c1.4,0,5.3,0.4,15.6,1.8c7.9,1.2,15.5-3.7,17.6-11.5c1.1-4.3,0.3-8.9-2.3-12.5C443,24,438.8,21.5,434.2,21.1L434.2,21.1z M303.8,233
	l-2.5-2.7c3.2-3.4,4.7-8.1,4.2-12.8l-1.6-12.8l10.3-7.9c6.5,13.1,19,44.5,8.3,75.2l-35.5,4.2c0,0-0.1-0.1-0.1-0.1l0.5-2.5
	c0.3,0,0.7,0,1,0c2.2,0,4.3-0.4,6.3-1.3c4.8-1.9,8.3-6.1,9.5-11.1l3.3-14.1C308.8,242.1,307.4,236.8,303.8,233z M295.9,244.5
	l-3.3,14.1c-0.3,1.2-1.2,2.3-2.4,2.7c-1.4,0.6-2.9,0.4-4.1-0.3c-1.2-0.7-1.9-2-1.9-3.4l0.9-21.2l4.9-0.7l5,5.5
	C295.8,242,296.2,243.3,295.9,244.5z M83.8,263.3c-0.1,0.3-0.4,0.6-0.8,0.6c-0.4,0.1-0.8,0-1.1-0.3l-6.2-6.6
	c-0.2-0.2-0.3-0.5-0.2-0.7c0.1-0.4,0.5-0.6,0.9-0.6l12.9-3.9L83.8,263.3z M90.6,229.7c-5-7.1-7.5-15.6-7.1-24.3
	c0.8-19.3,15.5-35,34.4-38.5c-2.9,11-6.6,21.7-11.1,32.1C102.2,209.6,96.8,219.9,90.6,229.7L90.6,229.7z M104.8,242.4
	c-2-1.1-3.9-2.4-5.7-3.8c7.3-11.1,13.5-22.8,18.7-34.9c5.2-12.1,9.4-24.6,12.6-37.3c2.3,0.2,4.7,0.7,7,1.3
	c-3.3,12.2-7.4,24.2-12.4,35.8C119.3,217,112.5,230,104.8,242.4L104.8,242.4z M124.1,247.7c-2.7-0.1-5.3-0.4-7.9-1
	c7.5-12.3,14.2-25.2,19.8-38.5c4.9-11.6,9.1-23.6,12.4-35.7c3.3,2,6.3,4.5,9,7.3c7.3,7.8,11.1,18.1,10.7,28.7
	C167.2,231,147.4,248.6,124.1,247.7z M163.4,245c8.2-7.6,13.8-17.6,15.9-28.6c6.1,3.3,15.1,8.5,24.8,14.9c3.3,2.2,6.4,4.4,9.4,6.6
	c-17.3,1.5-38.5,6.4-50.2,9.4L163.4,245z M242.4,308.1c-0.7,1.1-1.8,1.8-3.1,2c-4.2,0.6-8.4,0.9-12.6,0.9c-32.2,0-49-19.9-57.3-36.1
	l67,15.9c1.5,0.3,2.8,1.5,3.2,2.9l3.3,11.2C243.2,305.9,243,307.1,242.4,308.1L242.4,308.1z M240.9,279.6l-77.2-18.5
	c-0.1-0.5-0.3-1-0.4-1.5c17-4.4,50.5-11.9,64.9-9.9c8,7.1,14,14,17.8,20.4C244.2,273.7,242.4,276.9,240.9,279.6L240.9,279.6z
	 M180,203.2c-0.1-1.6-0.3-3.3-0.6-4.9l29.7-22.4c2.8-2,6.3-2.9,9.7-2.4l61,8.8c5.5,0.7,9.8,4.9,10.6,10.4l3.3,26.3
	c0.2,2.3-1.5,4.4-3.8,4.6l-9.5,1.3c-1.3,0.2-2.6-0.1-3.6-0.9c-0.9-0.7-1.4-1.7-1.6-2.8l-1.7-16.1c-0.6-5.6-5.3-10-11-10.2l-0.6,0
	c-9.7-0.4-27.9-1.1-35-9.4c-2.2-2.5-6-2.8-8.5-0.6s-2.8,6-0.6,8.5c10.5,12.2,31.2,13,43.6,13.5l0.2,0l1.6,15.4
	c0.5,8.2-4.8,22.3-11,35.6C232.6,231.8,191.8,209.4,180,203.2L180,203.2z M250.9,286.4c2.7-4.7,6.9-12.5,11.1-21.3
	c5.3-11,8.9-20.5,11.1-28.3l-0.8,20.4c-0.2,4.1,1.3,8.2,4.1,11.2l-0.8,3.9c-3.4,0.1-6.6,1.2-9.4,3.2L250.9,286.4z M279.5,291.3
	l-10.6,11.1c-1.1,1.1-2.6,1.6-4.1,1.4l-10.3-1.5l-0.9-3.2l19.4-14c1.4-1,3.2-1.2,4.8-0.6c1.4,0.5,2.4,1.7,2.7,3.1
	C280.9,289,280.5,290.4,279.5,291.3L279.5,291.3z M281.7,306.3l6.4-6.7c3.1-3.2,4.7-7.5,4.5-12l14.7-1.7L294.2,310
	C289.8,310,285.5,308.7,281.7,306.3L281.7,306.3z M309.2,476c0.2,2.2,0.3,4.2,0.3,6.2l0,4c0,0.3,0,0.5,0,0.8c0,0.1,0,0.2,0,0.2
	c0,0.8-0.4,1.5-1,2c-0.7,0.6-1.5,0.9-2.4,0.8c-0.2,0-0.5-0.1-0.8-0.1l-14.7-0.7c-5.2-0.8-10.4-0.9-15.6-0.2l-10.5,0.5
	c-0.2,0-0.4,0-0.6,0.1c-0.8,0.1-1.6-0.1-2.3-0.6c-0.6-0.5-1-1.3-1-2c-0.1-1.1,0.4-2.3,1.2-3.1c0.8-0.8,1.8-1.3,3-1.3
	c7.6,0.3,15.1-0.8,22.3-3.3c6.4-2.1,11.3-7.2,13.1-13.7l2.1-7.7h8.8C308.2,464,308.7,470.3,309.2,476L309.2,476z M401.2,77.4
	L344.3,288c-0.1,0.4-0.2,0.8-0.2,1.2l-10,152.9c-0.3,2.3-2.2,4-4.5,3.9h-29.2c-1.3,0-2.5-0.5-3.4-1.4c-0.8-0.8-1.1-1.9-1.1-2.9
	l7.9-123.9l18.1-33.5l3-0.4c4.1-0.6,7.6-3.5,8.8-7.5c13.9-39.3-4.8-78-11-89.2c0-0.1,0-0.1,0.1-0.2l52.4-123.4
	c0.5-1.2,1.5-2.1,2.8-2.4c1.4-0.4,2.8-0.2,4,0.5L399.4,73C400.9,73.9,401.6,75.7,401.2,77.4L401.2,77.4z M436.4,37.3
	c-0.6,1.8-2.4,3-4.3,2.6c-8.3-1.2-14-1.8-16.9-2c-4.3-0.2-8.6,1.6-11.5,4.8c-3.7,3.9-6.4,8.5-8.1,13.6l-7.1-4.5
	c-0.6-0.4-1.3-0.7-1.9-1l4.5-8.7c1.8-3.3,2.7-7,2.8-10.8l0.2-7.2l0-0.1c0.2-0.7,0.7-1.3,1.3-1.6c1-0.5,2.2-0.5,3.2,0l9.7,4.7
	c5.3,2.6,10.9,4.3,16.6,5.2c0.1,0,0.2,0,0.4,0l7.7,0.7c1.1,0.1,2.2,0.7,2.8,1.6C436.4,35.4,436.6,36.4,436.4,37.3L436.4,37.3z"/>
<path class="st0" d="M327.6,106.1c3,1.3,6.6-0.1,7.9-3.1c0,0,0,0,0,0l15.7-36.7c1.3-3-0.1-6.6-3.2-7.9c-3-1.3-6.6,0.1-7.9,3.2
	l-15.7,36.7C323.2,101.2,324.6,104.8,327.6,106.1z"/>
<path class="st0" d="M417.5,122.9c-3.2-0.7-6.4,1.3-7.2,4.5c0,0,0,0,0,0l-8.6,37.6c-0.7,3.2,1.3,6.4,4.5,7.2
	c3.2,0.7,6.4-1.3,7.2-4.5l8.6-37.6C422.7,126.9,420.7,123.7,417.5,122.9C417.5,122.9,417.5,122.9,417.5,122.9z"/>
<path class="st0" d="M423.9,94.7c-3.2-0.7-6.4,1.3-7.2,4.5l-2.5,11c-0.7,3.2,1.3,6.4,4.5,7.2c3.2,0.7,6.4-1.3,7.2-4.5l0,0l2.5-11
	C429.2,98.7,427.2,95.5,423.9,94.7C423.9,94.7,423.9,94.7,423.9,94.7z"/>
<path class="st0" d="M319.3,111.8l-1.8,4.6c-1.3,3.1,0.2,6.6,3.2,7.9c3.1,1.3,6.6-0.2,7.9-3.2c0,0,0-0.1,0.1-0.1l1.8-4.6
	c1.3-3-0.1-6.6-3.1-7.9s-6.6,0.1-7.9,3.1C319.3,111.6,319.3,111.7,319.3,111.8L319.3,111.8z"/>
</svg>
