<?xml version="1.0" encoding="utf-8"?>
<!-- Generator: Adobe Illustrator 25.0.0, SVG Export Plug-In . SVG Version: 6.00 Build 0)  -->
<svg version="1.1" id="Capa_1" xmlns="http://www.w3.org/2000/svg" xmlns:xlink="http://www.w3.org/1999/xlink" x="0px" y="0px"
	 viewBox="0 0 512 512" style="enable-background:new 0 0 512 512;" xml:space="preserve">
<style type="text/css">
	.st0{fill:#131C4B;}
</style>
<path class="st0" d="M494.1,20.8h-16.4v-2.9c0-9.8-8-17.8-17.9-17.8h-13.6c-9.8,0-17.9,8-17.9,17.8v54.9h-21.1v-2.1
	c0-7.8-6-14.4-14-15.2l-38.4-4c-3.8-0.4-7.5,0.9-10.4,3.5c-3.3,2.9-5.1,7.2-5.1,11.7v6h-61.5c-4.1,0-7.5,3.4-7.5,7.5
	s3.4,7.5,7.5,7.5h62.3c2,6.1,7.5,10.4,14,10.4h38.4c6.5,0,12.1-4.4,14-10.4h21.8V108h-29.4h-35H151.6h-35H83.5V87.7h18.4
	c2,6.1,7.5,10.4,14,10.4h38.4c6.5,0,12.1-4.4,14-10.4h73.9c4.1,0,7.5-3.4,7.5-7.5s-3.4-7.5-7.5-7.5h-73.1v-6c0-4.5-1.9-8.7-5.1-11.7
	c-2.9-2.6-6.6-3.9-10.4-3.5l-38.4,4c-8,0.8-14,7.3-14,15.2v2.1H83.5V18.6c0-9.8-8-17.8-17.8-17.8H52.1c-9.8,0-17.8,8-17.8,17.8v2.9
	H17.5C7.8,21.5,0,29.4,0,39v119.9c0,9.7,7.8,17.5,17.5,17.5h16.8v2.9c0,9.8,8,17.8,17.8,17.8h13.6c9.8,0,17.8-8,17.8-17.8V123H110
	l13.7,109.9c3,23.7,11.2,38.3,15.9,44.8l33.9,48v52.3v56.4c0,4.6,2.2,8.6,5.7,11.2v54.2c0,6.7,5.5,12.2,12.2,12.2h66.5h65.9
	c7.1,0,12.9-5.8,12.9-12.9v-53.5c3.4-2.5,5.6-6.6,5.6-11.1v-56.4v-52.3l33.9-48c5.7-8.1,13.1-22.4,15.9-44.8L405.8,123h22.7v55.6
	c0,9.8,8,17.8,17.9,17.8h13.6c9.8,0,17.9-8,17.9-17.8v-2.9h16.4c9.8,0,17.9-8,17.9-17.8V38.6C512,28.8,504,20.7,494.1,20.8
	L494.1,20.8z M392.4,82.9c0,0.1,0,0.2-0.1,0.2h-37.9c0-0.1,0-0.1,0-0.2V66.7c0-0.1,0-0.1,0-0.2l37.4,3.9c0,0,0,0,0,0
	c0.4,0,0.5,0.2,0.6,0.2L392.4,82.9L392.4,82.9z M116.7,70.4C116.7,70.4,116.7,70.4,116.7,70.4l37.4-3.9c0,0.1,0,0.1,0,0.2v16.2
	c0,0.1,0,0.2,0,0.2h-37.8c0-0.1-0.1-0.1-0.1-0.2l0-2.6c0,0,0,0,0-0.1s0,0,0-0.1l0-9.5C116.2,70.6,116.3,70.4,116.7,70.4z
	 M34.3,161.4H17.5c-1.3,0-2.5-1.1-2.5-2.5V39c0-1.3,1.1-2.5,2.5-2.5h16.8V161.4z M68.5,179.3c0,1.5-1.3,2.8-2.8,2.8H52.1
	c-1.5,0-2.8-1.3-2.8-2.8v-10.4V29V18.6c0-1.5,1.3-2.8,2.8-2.8h13.6c1.5,0,2.8,1.3,2.8,2.8L68.5,179.3L68.5,179.3z M355.3,123
	l-15.6,94.7c-1.1,6.7-6.4,10.3-8.6,11.5l-9.6,5.3h-10.3c6.4-12.1,10-25.5,10-37.9c0-34.7-28.2-62.9-63-62.9
	c-16.7,0-32.4,6.4-44.3,18.1c-2.2,2.2-4.3,4.6-6.2,7.2c-8.2,10.9-12.5,23.9-12.5,37.6c0,12.4,3.6,25.8,10,37.9h-11.1l-9.6-5.3
	c-2.2-1.2-7.5-4.8-8.6-11.5L160.4,123L355.3,123z M327.3,370.6h-51.1c-4.1,0-7.5,3.4-7.5,7.5s3.4,7.5,7.5,7.5h51.1v47.7h-61.9v-22.2
	c0-4.1-3.4-7.5-7.5-7.5s-7.5,3.4-7.5,7.5v22.2h-61.9v-47.7h52.8c4.1,0,7.5-3.4,7.5-7.5s-3.4-7.5-7.5-7.5h-52.8v-45.2
	c8.3-15,11.3-42.8,11.3-62.8v-13.1h15.6c12.2,14.7,27.3,22.7,42.9,22.7c15.6,0,30.8-8,42.9-22.7H316v13.1c0,20,3,47.9,11.3,62.8
	V370.6z M276,200.2c9.3,0,19.3-0.6,30.2-1.3c-1.2,26.8-22.8,58.4-47.9,58.4c-25.8,0-48-33.3-48-60.6c0-7,1.5-13.7,4.3-19.9
	C231.5,195.7,251,200.2,276,200.2L276,200.2z M223.3,163.7c0.4-0.4,0.8-0.8,1.2-1.3c9-8.9,21-13.8,33.7-13.8
	c22.1,0,40.7,15,46.2,35.3C264.1,186.6,242.2,187.4,223.3,163.7L223.3,163.7z M151.8,269c-3.8-5.4-10.7-17.5-13.2-38l-13.5-108h20.1
	l16,97.1c1.5,9.2,7.4,17.3,16.1,22.2l7.4,4.1v16.1c0,17.2-2.1,33.9-5.5,45.5L151.8,269z M194.1,448.3h56.2V497h-56.2V448.3z
	 M321.6,497h-56.3v-48.7h56.3V497z M377.2,231c-2.5,20.4-9.4,32.6-13.2,38l-27.5,39c-3.3-11.6-5.4-28.3-5.4-45.5v-16.1l7.4-4.1
	c8.7-4.9,14.6-12.9,16.1-22.2l16-97.2h20.1L377.2,231z M462.7,28.3v139.9v10.4c0,1.5-1.3,2.8-2.9,2.8h-13.6c-1.5,0-2.9-1.3-2.9-2.8
	V17.8c0-1.5,1.3-2.8,2.9-2.8h13.6c1.5,0,2.9,1.3,2.9,2.8V28.3z M497,157.8c0,1.5-1.3,2.8-2.9,2.8h-16.4V35.8h16.4
	c1.5,0,2.9,1.3,2.9,2.8V157.8z"/>
</svg>
