<?xml version="1.0" encoding="utf-8"?>
<!-- Generator: Adobe Illustrator 25.0.0, SVG Export Plug-In . SVG Version: 6.00 Build 0)  -->
<svg version="1.1" id="Layer_1" xmlns="http://www.w3.org/2000/svg" xmlns:xlink="http://www.w3.org/1999/xlink" x="0px" y="0px"
	 viewBox="0 0 470 470" style="enable-background:new 0 0 470 470;" xml:space="preserve">
<style type="text/css">
	.st0{fill:#131C4B;}
</style>
<g transform="translate(0 -540.36)">
	<g>
		<g>
			<rect x="97.5" y="767.7" class="st0" width="10.1" height="15"/>
			<rect x="62.6" y="770.3" class="st0" width="9.8" height="10.1"/>
			<rect x="362.7" y="767.7" class="st0" width="9.8" height="15"/>
			<rect x="397.6" y="770.3" class="st0" width="10.1" height="10.1"/>
			<path class="st0" d="M452.7,750.5v-87.7h-5.6H292.6v-4.9h-10.1v4.9h-94.9v-4.9h-10.1v4.9H23h-5.3v10.1v22.5v10.1v47.2H0v50.2
				h17.6v42.4v10.1v22.5v9.7h5.3h154.5v5.2h10.1v-5.2h94.9v5.2h10.1v-5.2H447h5.6v-87.3H470v-49.8H452.7z M17.6,792.8h-7.5v-30h7.5
				V792.8z M27.4,705.5c30.8,0,55.1,23.2,55.1,52.1v35.6c0,28.9-24.4,52.1-55.1,52.1C27.4,845.3,27.4,705.5,27.4,705.5z M27.4,855.4
				c36,0,65.3-27.7,65.3-62.2v-35.6c0-34.5-29.3-62.2-65.3-62.2V673c47.8,2.3,85.1,41.1,85.1,89.5v25.9c0,48-37.4,87.1-85.1,89.5
				C27.4,877.9,27.4,855.4,27.4,855.4z M229.9,877.8h-42.4v-5.2h-10.1v0.1v5.2H66.1c33.5-16,56.5-50,56.5-89.6v-25.9
				c0-39.4-22.8-73.4-55.9-89.6h110.7v4.9h10.1v-4.9h42.4V877.8z M292.6,878L292.6,878v-5.3h-10.1v5.2h-42.4v-205h42.4v4.9h10.1
				v-4.9h110.7c-33,16.2-55.6,50.2-55.6,89.6v25.9c0,39.6,22.9,73.6,56.2,89.6H292.6z M442.6,845.3c-30.8,0-55.1-23.2-55.1-52.1
				v-35.6c0-28.9,24.4-52.1,55.1-52.1V845.3z M442.6,695.3c-36,0-64.9,27.7-64.9,62.2v35.6c0,34.5,28.9,62.2,64.9,62.2v22.5
				c-47.4-2.3-85.1-41.5-85.1-89.5v-25.9c0-48.3,37.7-87.1,85.1-89.5V695.3z M460.2,790.2h-7.5v-30h7.5V790.2z"/>
		</g>
	</g>
</g>
</svg>
