<?xml version="1.0" encoding="UTF-8"?>
<svg id="Layer_1" data-name="Layer 1" xmlns="http://www.w3.org/2000/svg" viewBox="0 0 482.16 481.86">
  <defs>
    <style>
      .cls-1 {
        fill: #7f1917;
      }

      .cls-1, .cls-2 {
        stroke-width: 0px;
      }

      .cls-2 {
        fill: #fff;
      }
    </style>
  </defs>
  <circle class="cls-2" cx="241.7" cy="238.28" r="235.59"/>
  <g id="oIzZmo.tif">
    <g>
      <path class="cls-1" d="m230.79,0c6.86,0,13.72,0,20.58,0,.38.31.84.24,1.27.23,2.45-.09,4.88.35,7.33.36.1,0,.2.01.29.02,1.6.17,3.21.35,4.81.51,1.31.13,2.63.21,3.94.37,1.94.24,3.87.52,5.81.8,2.81.41,5.62.76,8.41,1.28,4.57.86,9.13,1.76,13.65,2.85,6.67,1.6,13.27,3.44,19.78,5.59,5.86,1.93,11.65,4.07,17.32,6.5,3.6,1.54,7.19,3.11,10.73,4.79,6.01,2.87,11.91,5.96,17.65,9.34,3.42,2.01,6.81,4.07,10.13,6.25,2.58,1.69,5.13,3.43,7.66,5.19,1.93,1.34,3.85,2.7,5.71,4.14,3.13,2.43,6.23,4.9,9.3,7.41,2.53,2.08,5.03,4.21,7.47,6.4,2.4,2.16,4.73,4.41,7.04,6.67,3.67,3.6,7.29,7.25,10.73,11.08.16.18.33.37.49.55,1.02,1.18,2.05,2.37,3.07,3.55.83.96,1.69,1.9,2.49,2.89,1.75,2.17,3.48,4.36,5.22,6.54,3.3,4.14,6.38,8.44,9.35,12.81,2.54,3.72,4.92,7.55,7.25,11.4,2.91,4.83,5.61,9.76,8.18,14.77,2.48,4.84,4.73,9.78,6.86,14.79,2.36,5.54,4.5,11.17,6.45,16.87.6,1.76,1.12,3.55,1.7,5.32,1.29,3.96,2.39,7.97,3.42,12,.79,3.13,1.52,6.28,2.21,9.43.5,2.29.91,4.61,1.33,6.92.34,1.88.64,3.76.95,5.64.26,1.59.55,3.18.76,4.78.26,1.94.42,3.89.67,5.83.25,1.89.5,3.78.57,5.69,0,.15.03.29.04.44.16,1.9.38,3.79.48,5.69.09,1.81.05,3.62.08,5.44,0,.48-.11.99.21,1.42v17.05c-.35.48-.23,1.04-.21,1.57.1,3.24-.18,6.46-.4,9.68-.08,1.07-.22,2.14-.27,3.21,0,.19-.05.39-.07.58-.15,1.26-.31,2.52-.46,3.78-.14,1.21-.22,2.44-.39,3.65-.23,1.69-.51,3.38-.78,5.07-.42,2.66-.79,5.32-1.3,7.96-1.13,5.86-2.4,11.69-3.96,17.46-1.59,5.86-3.31,11.68-5.33,17.41-1.77,5.03-3.68,10.01-5.76,14.93-1.75,4.15-3.66,8.23-5.62,12.28-1.13,2.33-2.36,4.63-3.58,6.91-1.13,2.12-2.28,4.23-3.48,6.3-1.58,2.71-3.21,5.38-4.84,8.06-2.19,3.6-4.55,7.09-6.97,10.53-2.71,3.84-5.49,7.63-8.45,11.29-2.19,2.7-4.35,5.42-6.65,8.03-.87.99-1.75,1.98-2.63,2.97-1.47,1.64-2.9,3.32-4.43,4.9-2.34,2.44-4.75,4.81-7.14,7.2-1.07,1.07-2.14,2.15-3.26,3.18-1.65,1.53-3.34,3.02-5.02,4.52-1.8,1.59-3.58,3.2-5.42,4.73-2.15,1.78-4.36,3.48-6.54,5.22-4.22,3.36-8.58,6.5-13.05,9.52-4.58,3.1-9.24,6.1-14.06,8.81-3.16,1.78-6.3,3.59-9.5,5.27-5.2,2.73-10.51,5.25-15.91,7.58-4.63,2-9.31,3.89-14.06,5.57-4.06,1.43-8.17,2.72-12.28,4.03-4.48,1.43-9.03,2.59-13.61,3.66-3.86.9-7.72,1.79-11.63,2.42-3.23.52-6.45,1.15-9.69,1.62-3.14.46-6.3.84-9.46,1.17-2.19.23-4.38.45-6.57.57-2.64.15-5.27.49-7.91.39-.34-.01-.69,0-1.03.03-.18.02-.36.13-.54.2h-17.35c-.28-.07-.55-.2-.83-.21-.78-.04-1.57,0-2.35-.04-1.81-.09-3.61-.19-5.42-.3-1.56-.1-3.12-.22-4.68-.34-.05,0-.1-.02-.15-.02-1.36-.16-2.71-.33-4.07-.48-2.04-.23-4.09-.39-6.12-.68-2.85-.41-5.69-.92-8.54-1.35-4.35-.67-8.66-1.57-12.95-2.55-6.68-1.53-13.29-3.35-19.82-5.42-4.67-1.48-9.26-3.17-13.83-4.92-4.75-1.83-9.44-3.83-14.04-5.99-5.1-2.4-10.12-4.94-15.06-7.66-1.03-.57-2.06-1.14-3.07-1.74-2.19-1.3-4.39-2.58-6.55-3.93-2.7-1.68-5.41-3.36-8.04-5.14-3-2.03-5.94-4.15-8.88-6.27-4.52-3.28-8.86-6.78-13.12-10.38-2.54-2.15-5.03-4.36-7.48-6.61-2.24-2.05-4.41-4.17-6.58-6.29-.94-.92-1.8-1.93-2.72-2.88-1.87-1.94-3.79-3.82-5.56-5.86-1.76-2.04-3.62-3.99-5.35-6.05-2.21-2.62-4.39-5.26-6.49-7.97-3.55-4.56-6.96-9.22-10.16-14.03-2.96-4.44-5.82-8.95-8.45-13.59-1.38-2.43-2.79-4.84-4.07-7.31-3.45-6.65-6.77-13.37-9.62-20.3-1.6-3.89-3.15-7.81-4.54-11.78-.94-2.68-1.82-5.38-2.71-8.07-1.39-4.18-2.55-8.43-3.66-12.69-1.57-6.01-2.89-12.08-3.9-18.22-.57-3.42-1.14-6.85-1.63-10.28-.37-2.56-.63-5.14-.89-7.72-.23-2.28-.41-4.58-.56-6.87-.13-1.9-.23-3.81-.34-5.71-.02-.39.03-.79-.28-1.11C0,244.21,0,237.35,0,230.49c.08-.17.22-.34.24-.52.11-1.46.21-2.92.3-4.39.12-1.85.22-3.71.36-5.56.08-1.07.19-2.14.32-3.21.15-1.26.33-2.52.48-3.78.23-1.94.4-3.89.68-5.82.45-3.05.9-6.1,1.47-9.12.83-4.42,1.71-8.84,2.77-13.21,1.05-4.33,2.15-8.64,3.49-12.9.95-3.04,1.83-6.1,2.88-9.1,1.76-5.04,3.58-10.05,5.72-14.95,1.26-2.87,2.44-5.77,3.79-8.6,2.98-6.23,6.09-12.4,9.56-18.37,2.41-4.15,4.92-8.24,7.56-12.25,3.12-4.75,6.43-9.36,9.88-13.88,2.47-3.23,5.01-6.39,7.62-9.5,2.14-2.55,4.36-5.03,6.6-7.49,2.08-2.27,4.21-4.51,6.4-6.69,2.49-2.49,5.07-4.9,7.61-7.34.11-.1.21-.2.32-.3,2.14-1.87,4.26-3.75,6.41-5.6,2.01-1.72,4.02-3.43,6.08-5.09,2.14-1.72,4.3-3.41,6.51-5.03,3.08-2.25,6.18-4.49,9.35-6.62,3.37-2.27,6.81-4.43,10.27-6.57,4.04-2.5,8.18-4.83,12.4-7,4.53-2.33,9.07-4.64,13.73-6.71,1.92-.85,3.86-1.68,5.8-2.49,3.8-1.58,7.63-3.06,11.5-4.46,4.19-1.52,8.43-2.9,12.7-4.16,4.41-1.31,8.85-2.5,13.34-3.52,3.96-.91,7.92-1.78,11.92-2.48,2.55-.45,5.11-.84,7.67-1.23,2.51-.38,5.02-.81,7.55-1.06,2.53-.25,5.04-.66,7.59-.68.15,0,.29-.02.44-.04,2.13-.29,4.28-.37,6.43-.51.73-.05,1.47-.01,2.2-.05.28-.02.55-.14.83-.22ZM9.28,263.1c.08,1.15.11,2.13.22,3.1.24,2.04.54,4.07.79,6.1.4,3.35.91,6.69,1.54,10,.65,3.41,1.33,6.82,2.09,10.2.63,2.82,1.36,5.61,2.08,8.41.98,3.84,2.12,7.64,3.34,11.41,2.07,6.38,4.41,12.67,7.02,18.85,1.64,3.88,3.4,7.7,5.23,11.5,1.72,3.57,3.57,7.09,5.52,10.54,1.3,2.3,2.58,4.62,3.92,6.9,1.19,2.02,2.46,4,3.71,6,2.36,3.78,4.85,7.48,7.49,11.07,2.37,3.24,4.82,6.42,7.3,9.57,1.63,2.08,3.37,4.07,5.08,6.08.89,1.04,1.81,2.06,2.73,3.08,1.84,2.03,3.64,4.1,5.56,6.05,3.06,3.11,6.1,6.23,9.34,9.15,2.62,2.36,5.2,4.77,7.92,7,2.69,2.2,5.37,4.42,8.09,6.57,3.99,3.16,8.12,6.14,12.36,8.97,3.14,2.09,6.32,4.12,9.5,6.15,4.04,2.59,8.23,4.95,12.48,7.17,6.38,3.33,12.84,6.5,19.51,9.24,4.17,1.71,8.36,3.35,12.62,4.81,2.69.92,5.39,1.79,8.1,2.62,2.67.82,5.35,1.6,8.04,2.31,6.91,1.83,13.88,3.36,20.94,4.48,3.23.52,6.46,1.08,9.72,1.42.97.1,1.94.21,2.91.33,1.26.16,2.52.37,3.78.48,1.75.16,3.51.25,5.27.36.2.01.4,0,.59.04,1.06.28,2.14.18,3.22.25,1.07.07,2.14.2,3.21.24,1.52.05,3.04.05,4.56.07.44,0,.89-.04,1.32.05,1.17.24,2.34.18,3.51.19,1.52,0,3.04,0,4.56,0,.39,0,.79.04,1.17-.04,1.31-.26,2.64-.18,3.96-.2,1.32-.03,2.66.06,3.96-.1,1.27-.16,2.54-.17,3.81-.23.34-.02.69-.02,1.03-.05,1.65-.16,3.3-.34,4.96-.5,1.36-.13,2.73-.21,4.09-.37,1.94-.23,3.87-.51,5.81-.79,2.66-.39,5.33-.73,7.97-1.22,4.13-.76,8.28-1.52,12.37-2.46,8.35-1.93,16.58-4.3,24.66-7.18,4.57-1.63,9.11-3.32,13.57-5.22,3.74-1.59,7.47-3.21,11.11-5.02,3.2-1.59,6.38-3.23,9.54-4.91,2.08-1.1,4.12-2.26,6.14-3.46,2.69-1.6,5.35-3.27,8.01-4.92,3.92-2.42,7.68-5.07,11.4-7.78,3.84-2.8,7.61-5.68,11.22-8.77,2.38-2.03,4.82-4.01,7.14-6.11,2.54-2.3,4.99-4.71,7.48-7.06.71-.67,1.43-1.33,2.15-2,.21-.2.42-.41.62-.62.67-.71,1.33-1.44,2-2.15,2.25-2.39,4.51-4.77,6.76-7.15.13-.14.27-.29.39-.44,1.43-1.68,2.87-3.34,4.27-5.04,1.99-2.42,3.99-4.83,5.92-7.3,1.63-2.08,3.19-4.21,4.74-6.36,1.63-2.27,3.24-4.55,4.77-6.88,1.7-2.57,3.33-5.19,4.95-7.82,2.31-3.76,4.49-7.59,6.54-11.49,1.27-2.43,2.46-4.9,3.7-7.34,1.96-3.84,3.71-7.78,5.37-11.76,2.92-7.01,5.59-14.11,7.8-21.38,1.6-5.25,3.08-10.52,4.31-15.86.96-4.2,1.83-8.41,2.57-12.65.69-4,1.35-8,1.74-12.04.1-1.07.27-2.13.38-3.2.08-.78.15-1.56.18-2.34.01-.27-.11-.55-.17-.79-.59-.31-1.13-.21-1.66-.17-.78.06-1.56.16-2.34.16-5.14.04-10.29.05-15.43.08-.64,0-1.27.02-1.91.06-.78.04-1.56.15-2.34.16-5.14.04-10.29.05-15.43.08-.73,0-1.47.02-2.2.06-.78.04-1.56.16-2.34.16-5.1.04-10.19.05-15.29.07-.59,0-1.19-.06-1.76.04-1.56.26-3.13.18-4.69.2-2.45.03-4.9.02-7.35.04-.43,0-.89-.08-1.31.36-.09.34-.27.76-.32,1.19-.26,2.29-.77,4.53-1.19,6.79-.9,4.82-2.12,9.55-3.56,14.23-2.27,7.4-4.98,14.65-8.25,21.67-2.19,4.71-4.56,9.33-7.2,13.8-2.34,3.96-4.83,7.84-7.53,11.57-1.38,1.9-2.8,3.77-4.26,5.62-1.39,1.77-2.84,3.5-4.29,5.21-1.23,1.46-2.46,2.92-3.79,4.29-4.19,4.33-8.39,8.65-13.04,12.51-1.96,1.63-3.87,3.31-5.88,4.86-4.69,3.63-9.49,7.09-14.53,10.22-3.54,2.2-7.12,4.31-10.83,6.21-3.97,2.04-7.97,3.99-12.09,5.69-4.93,2.04-9.96,3.84-15.08,5.36-4.93,1.46-9.91,2.69-14.97,3.64-4.52.85-9.05,1.6-13.62,2.05-1.07.11-2.15.12-3.21.31-1.89.34-3.81.17-5.7.45-1.15.17-2.35.06-3.52.08-1.22.02-2.44-.02-3.66.17-.72.11-1.47.03-2.2,0-.93-.04-1.85-.19-2.78-.16-2.89.08-5.77-.29-8.65-.36-.1,0-.2-.01-.29-.02-1.5-.17-3.01-.34-4.51-.51-1.94-.22-3.9-.38-5.82-.69-3.04-.49-6.07-1.06-9.09-1.65-5-.96-9.93-2.26-14.78-3.81-3.22-1.03-6.43-2.09-9.58-3.3-3.34-1.27-6.64-2.65-9.89-4.13-3.12-1.42-6.14-3.04-9.21-4.58-.35-.18-.7-.35-1.04-.55-2.49-1.47-5.01-2.88-7.45-4.43-2.73-1.73-5.42-3.53-8.06-5.4-3.32-2.35-6.55-4.81-9.62-7.48-2-1.73-4.06-3.39-5.97-5.22-3.71-3.56-7.43-7.11-10.81-11-1.54-1.77-3.13-3.5-4.62-5.32-2.67-3.25-5.22-6.61-7.62-10.07-3.5-5.03-6.7-10.25-9.58-15.66-2.51-4.71-4.76-9.56-6.8-14.49-2.43-5.89-4.5-11.91-6.2-18.05-1.75-6.32-3.16-12.72-3.99-19.24-.05-.4-.14-.77-.65-1.08-.45,0-1.04-.02-1.62-.02-23.37,0-46.75,0-70.12,0-.44,0-.88-.01-1.32.02-.23.02-.45.13-.73.22Zm75.17-50.72c.16-.62.32-1.13.43-1.65.36-1.67.66-3.36,1.05-5.03,1.72-7.4,3.88-14.67,6.63-21.75,1.72-4.43,3.58-8.8,5.72-13.04.9-1.79,1.86-3.56,2.79-5.34,1.86-3.56,3.95-6.99,6.13-10.36,3.89-6.01,8.13-11.76,12.7-17.26,2.32-2.79,4.68-5.54,7.16-8.17,3-3.16,6.05-6.27,9.31-9.18,2.34-2.09,4.67-4.17,7.1-6.15,2.93-2.38,5.92-4.67,9.02-6.81,4.31-2.98,8.73-5.8,13.32-8.34,3.82-2.11,7.69-4.11,11.66-5.91,1.69-.77,3.4-1.52,5.12-2.22,3.72-1.52,7.48-2.9,11.32-4.1,2.1-.66,4.21-1.3,6.33-1.89,5.05-1.41,10.16-2.53,15.32-3.39,2.36-.39,4.74-.68,7.12-.98,1.11-.14,2.24-.21,3.35-.35,2.38-.28,4.76-.53,7.16-.55.49,0,.98-.03,1.47-.06.83-.05,1.66-.19,2.48-.17,3.57.06,7.14-.17,10.71.2,1.7.18,3.41.13,5.12.28,2.09.19,4.18.38,6.27.61,2.24.24,4.46.54,6.68.89,3.38.53,6.74,1.21,10.07,1.98,6.45,1.49,12.77,3.38,18.97,5.69,4.41,1.64,8.74,3.46,12.97,5.52,3.92,1.91,7.8,3.9,11.55,6.13,3.92,2.32,7.75,4.78,11.46,7.43,2.83,2.02,5.61,4.1,8.28,6.34,1.58,1.32,3.14,2.66,4.67,4.02,1.76,1.56,3.51,3.12,5.21,4.75,2.48,2.37,4.86,4.83,7.15,7.39,1.18,1.31,2.41,2.57,3.55,3.92,2.11,2.51,4.19,5.05,6.24,7.6,3.93,4.89,7.49,10.05,10.79,15.39,2.83,4.59,5.4,9.32,7.73,14.18.97,2.03,1.97,4.06,2.84,6.13,1.21,2.89,2.32,5.82,3.44,8.74,1.6,4.17,2.87,8.43,4.05,12.73,1.16,4.25,2.09,8.55,2.91,12.88.05.28.18.54.26.76.68.29,1.33.18,1.96.18,23.37,0,46.74,0,70.11,0,.44,0,.88.02,1.32-.01.28-.02.55-.11.8-.16.24-.71.12-1.34.04-1.96-.14-1.11-.32-2.22-.49-3.33-.42-2.8-.77-5.62-1.3-8.4-1.11-5.86-2.36-11.7-3.89-17.47-1.17-4.4-2.43-8.77-3.83-13.1-1.92-5.92-4.08-11.74-6.47-17.49-1.82-4.39-3.8-8.71-5.86-12.98-1.38-2.87-2.88-5.68-4.38-8.49-1.01-1.9-2.09-3.77-3.18-5.62-1.42-2.4-2.87-4.79-4.35-7.16-2.53-4.08-5.23-8.05-8.04-11.94-2.75-3.81-5.6-7.55-8.58-11.18-1.58-1.93-3.19-3.84-4.82-5.73-1.12-1.3-2.29-2.55-3.44-3.82-1.92-2.09-3.81-4.21-5.78-6.25-2.18-2.25-4.36-4.5-6.72-6.57-1.51-1.32-2.92-2.75-4.43-4.08-2.16-1.92-4.33-3.83-6.55-5.67-2.67-2.22-5.35-4.44-8.13-6.52-3.45-2.58-6.96-5.08-10.51-7.52-4.32-2.97-8.76-5.76-13.33-8.33-3.45-1.95-6.91-3.9-10.42-5.74-2.82-1.48-5.7-2.84-8.58-4.18-2.84-1.32-5.71-2.59-8.58-3.83-3.69-1.59-7.43-3.04-11.22-4.36-5.78-2.02-11.6-3.91-17.51-5.49-4.26-1.14-8.54-2.17-12.85-3.05-2.92-.6-5.85-1.15-8.79-1.68-1.54-.28-3.09-.48-4.64-.69-1.6-.23-3.2-.44-4.79-.65-2.03-.26-4.07-.56-6.11-.76-2.09-.21-4.19-.36-6.28-.57-1.94-.2-3.9-.25-5.86-.33-1.27-.06-2.55-.06-3.82-.11-.78-.03-1.56-.18-2.34-.16-4.65.06-9.3-.22-13.95.2-1.94.18-3.91.03-5.86.28-1.45.18-2.92.11-4.39.31-1.55.21-3.12.26-4.68.38-.15.01-.29.03-.44.05-1.31.16-2.62.33-3.93.49-1.12.13-2.24.21-3.35.38-2.85.43-5.69.92-8.54,1.36-3.87.59-7.7,1.39-11.51,2.27-3.29.76-6.55,1.62-9.83,2.44-3.94.99-7.83,2.19-11.68,3.48-3.67,1.23-7.3,2.56-10.92,3.91-5.05,1.89-9.99,4.02-14.85,6.35-5.79,2.77-11.51,5.68-17.06,8.9-3.73,2.16-7.44,4.35-11.04,6.72-3.48,2.29-6.96,4.57-10.3,7.07-2.59,1.94-5.17,3.87-7.72,5.86-1.74,1.35-3.43,2.76-5.11,4.18-1.79,1.52-3.55,3.08-5.3,4.65-1.9,1.7-3.8,3.39-5.64,5.15-2.29,2.21-4.55,4.46-6.76,6.75-1.97,2.04-3.86,4.16-5.76,6.27-1.67,1.85-3.34,3.71-4.95,5.62-1.61,1.91-3.16,3.87-4.71,5.82-3.39,4.25-6.6,8.64-9.68,13.11-2.5,3.63-4.88,7.34-7.15,11.12-2.22,3.69-4.37,7.43-6.37,11.25-3.34,6.38-6.44,12.88-9.19,19.54-1.98,4.8-3.79,9.66-5.45,14.58-.93,2.73-1.75,5.5-2.6,8.26-1.24,4.02-2.32,8.09-3.3,12.19-.99,4.14-1.87,8.3-2.62,12.49-.31,1.73-.62,3.47-.89,5.2-.3,1.93-.58,3.87-.83,5.8-.08.61-.24,1.26.12,1.84.17.07.3.16.44.16,24.25.02,48.51.03,72.76.03.29,0,.58-.06,1.01-.12Zm154.29,163.88v.06c.54,0,1.08,0,1.62,0,3.23.04,6.46-.11,9.68-.36.15-.01.29-.02.44-.03,1.36-.16,2.71-.33,4.07-.5,1.89-.23,3.8-.38,5.67-.7,3.42-.57,6.84-1.15,10.23-1.92,4.39-1,8.76-2.08,13.05-3.46,3.08-.99,6.13-2.05,9.17-3.15,3.73-1.34,7.38-2.9,10.97-4.6,4.65-2.2,9.22-4.55,13.63-7.22,3.56-2.16,7.05-4.42,10.41-6.89,3.04-2.24,6-4.56,8.85-7.04,2-1.74,4-3.46,5.86-5.34,2.28-2.29,4.59-4.55,6.74-6.97,1.95-2.2,3.87-4.42,5.67-6.75,2.79-3.6,5.5-7.26,7.85-11.17,1.52-2.52,3.07-5.01,4.46-7.6,1.72-3.19,3.33-6.43,4.79-9.76,1.4-3.19,2.68-6.41,3.83-9.69,1.25-3.56,2.34-7.16,3.28-10.82,1.42-5.55,2.6-11.14,3.21-16.85.09-.87.21-1.75.32-2.62.24-1.79.39-3.59.5-5.4.06-.98.07-1.96.13-2.93.03-.58.14-1.17.15-1.75.02-2.79,0-5.59,0-8.38,0-.39.04-.8-.04-1.17-.24-1.02-.16-2.05-.22-3.07-.1-1.61-.18-3.22-.35-4.83-.21-1.94-.49-3.88-.79-5.81-.41-2.66-.77-5.33-1.32-7.96-.93-4.45-2.06-8.86-3.45-13.2-1.96-6.12-4.31-12.08-7.06-17.88-.8-1.68-1.71-3.3-2.56-4.96-1.75-3.4-3.7-6.68-5.8-9.87-1.97-2.99-3.96-5.95-6.16-8.77-2.2-2.82-4.39-5.64-6.83-8.26-1.73-1.86-3.38-3.81-5.17-5.62-2.06-2.09-4.23-4.08-6.35-6.11-.07-.07-.14-.13-.22-.2-1.68-1.42-3.36-2.84-5.04-4.27-2.73-2.32-5.59-4.45-8.53-6.49-4.23-2.94-8.58-5.68-13.12-8.1-4.24-2.26-8.57-4.32-13.02-6.13-5.72-2.33-11.57-4.27-17.55-5.83-5.21-1.36-10.49-2.4-15.81-3.22-.77-.12-1.55-.23-2.32-.32-1.17-.13-2.34-.21-3.5-.37-1.94-.26-3.87-.53-5.84-.55-.2,0-.4,0-.59-.03-2.22-.43-4.5-.1-6.72-.5-4.26.07-8.52-.21-12.77.21-1.65.16-3.32.16-4.98.29-2.29.18-4.57.45-6.85.72-2.42.28-4.84.69-7.24,1.15-2.93.56-5.86,1.15-8.75,1.89-4.41,1.13-8.78,2.41-13.05,4-3.45,1.28-6.85,2.66-10.17,4.22-3.64,1.71-7.2,3.56-10.66,5.6-5.12,3-10.05,6.28-14.77,9.87-3,2.28-5.96,4.62-8.74,7.17-1.69,1.56-3.45,3.05-5.11,4.64-1.73,1.66-3.41,3.38-5.03,5.15-1.92,2.09-3.87,4.16-5.68,6.35-1.59,1.93-3.2,3.84-4.72,5.81-3.24,4.19-6.31,8.49-9.08,13-1.54,2.5-3.05,5.02-4.44,7.61-1.36,2.55-2.57,5.17-3.8,7.79-1.6,3.42-2.93,6.95-4.12,10.53-1.27,3.81-2.35,7.67-3.19,11.6-.78,3.64-1.47,7.28-1.84,10.99-.1.97-.2,1.95-.32,2.91-.27,2.09-.46,4.18-.49,6.28-.05,4.02-.01,8.03,0,12.05,0,.34.03.68.06,1.03.06.68.14,1.36.2,2.04.13,1.46.23,2.92.37,4.38.09.92.2,1.85.34,2.76.24,1.64.5,3.29.77,4.92.32,1.93.63,3.86,1.02,5.78.8,3.88,1.71,7.74,2.8,11.55,1.27,4.43,2.7,8.8,4.38,13.09,1.09,2.78,2.24,5.54,3.43,8.28.84,1.93,1.74,3.84,2.72,5.7,1.36,2.6,2.8,5.17,4.24,7.73,2.33,4.15,4.96,8.1,7.77,11.94,2.26,3.08,4.57,6.12,7.14,8.95,1.71,1.88,3.38,3.81,5.14,5.65,2.84,2.97,5.83,5.81,8.99,8.45,1.99,1.66,3.95,3.37,6,4.96,3.56,2.76,7.26,5.34,11.07,7.74,3.86,2.43,7.84,4.63,11.89,6.71,1,.52,2.03.97,3.06,1.43,2.01.9,4.01,1.84,6.05,2.66,4.23,1.69,8.53,3.2,12.91,4.44,3.86,1.09,7.75,2.06,11.7,2.79,3.85.72,7.69,1.4,11.59,1.74,1.07.09,2.15.16,3.21.34,1.89.32,3.8.3,5.7.44,2.34.17,4.7.04,7.05.04ZM48.08,236.8c1.61.31,2.94.07,4.05-1.02.03-.03.07-.07.11-.1,1.75-1.45,4.36-.82,5.25,1.33.49,1.19.76,2.44.71,3.72-.04,1.17-.33,2.32-.68,3.44-.22.69-.69,1.16-1.32,1.51-.76.43-1.58.48-2.42.46-1.24-.03-2.2-.53-2.7-1.68-.42-.94-1.1-1.32-2.09-1.27-.48.03-.96.05-1.51.08,0,.27-.04.47,0,.64.11.42.25.84.4,1.26.68,1.84,2.29,3.29,4.16,3.83,1.2.35,2.43.41,3.64.21,2.45-.4,4.24-1.7,5.05-4.14.44-1.31.53-2.68.65-4.04.11-1.33-.13-2.64-.34-3.94-.24-1.48-.91-2.82-2.08-3.78-1.5-1.24-3.22-1.83-5.19-1.34-.57.14-1.13.31-1.7.44-.22.05-.46.04-.74.06-.08-.29-.2-.51-.2-.74,0-1.37.03-2.74.07-4.11,0-.17.17-.34.24-.45.56-.34,1.11-.25,1.64-.25,2.01-.01,4.02,0,6.02-.01.43,0,.89.08,1.3-.35.2-.84.3-1.73-.15-2.65-.31-.04-.6-.12-.88-.12-3.53,0-7.05,0-10.58,0-.23,0-.46.08-.67.12-.07.21-.16.35-.16.48-.01,3.92-.02,7.83-.02,11.75,0,.19.08.37.14.65Zm404.21-11.41c-.93.32-1.49,1.01-2.01,1.7-.77,1.02-1.35,2.16-1.81,3.35-.87,2.23-1.66,4.5-2.21,6.84-.16.67-.36,1.32-.57,1.97-.03.1-.2.16-.29.23-.09-.06-.15-.07-.16-.11-.15-.51-.32-1.02-.44-1.54-.66-2.87-1.5-5.67-2.66-8.38-.56-1.31-1.26-2.55-2.35-3.5-.29-.25-.57-.54-1.04-.46-.07.12-.19.23-.22.36-.34,1.82-.68,3.65-.98,5.48-.06.37.01.77.02,1.1,2.19,2.32,3.61,4.96,4.45,7.94.75,2.63,1.52,5.26,2.28,7.89.24.85.48,1.69.74,2.53.07.21.16.48.6.34.35-1.26.74-2.57,1.08-3.89.71-2.75,1.56-5.45,2.66-8.07.61-1.45,1.29-2.85,2.19-4.14.64-.92,1.32-1.82,2.02-2.78,0-.23.04-.53,0-.82-.33-1.83-.67-3.65-1.02-5.47-.03-.18-.15-.34-.26-.56Zm-417.49,23.51c.6-.36.81-.93,1.07-1.45,1.42-2.9,2.82-5.81,4.26-8.69.97-1.94,1.65-3.94,1.97-6.1.32-2.12-.03-4.07-.95-5.96-.63-1.31-1.64-2.19-3.01-2.61-1.6-.49-3.21-.73-4.9-.32-1.94.48-3.38,1.54-4.16,3.37-1.31,3.07-1.17,6.1.53,9.01.82,1.41,2.09,2.19,3.72,2.26.92.04,1.85-.06,2.78-.09.18,0,.36.01.62.03-.05.27-.04.46-.11.63-.15.36-.32.71-.5,1.06-1.38,2.7-2.76,5.39-4.13,8.1-.12.24-.38.47-.12.85.98.02,1.99.11,2.94-.07Zm392.86-14.84c.36.14.67.3,1,.39,1.75.49,2.33-.11,2.88-1.22.67-1.36.75-2.83.81-4.29.04-.96-.18-1.94-.3-2.91-.02-.12-.16-.22-.3-.41-.15.19-.32.31-.36.47-.09.38-.09.78-.17,1.16-.12.52-.25,1.04-.62,1.47-.65.76-1.33.84-2,.13-.36-.39-.63-.86-.91-1.32-.29-.49-.54-1.02-.86-1.63-.19.26-.32.39-.4.55-.27.52-.5,1.07-.77,1.58-.18.34-.38.69-.63.99-.48.59-1.11.78-1.84.53-.61-.21-1.18-.48-1.65-.93-.54-.51-1.01-1.06-1.37-1.71-.21-.38-.48-.74-.74-1.09-.04-.06-.17-.06-.27-.1-.41.31-.53.8-.72,1.24-.42.99-.79,2.01-1.25,2.98-.43.91-.32,1.67.29,2.45,1.91,2.41,3.24,5.12,4.14,8.05.62,2.01,1.22,4.03,1.83,6.04.46,1.5.92,2.99,1.38,4.49.07.23.14.47.51.55.08-.13.22-.27.26-.44.31-1.33.6-2.68.63-4.05.04-1.57.04-3.14,0-4.7-.02-.73-.11-1.46-.26-2.18-.22-1.05-.5-2.09-.78-3.13-.1-.38-.23-.75-.01-1.13.81-.6,1.63-1.19,2.45-1.79Zm-357.37,7.79c.14-.43.2-.66.3-.87,1.69-3.69,3.39-7.38,5.07-11.08.77-1.69,1.52-3.39,2.27-5.09.09-.21.12-.45.17-.67-.19-.12-.3-.24-.43-.26-.29-.05-.58-.04-.87-.07-1.17-.12-1.99.31-2.42,1.44-.26.69-.57,1.35-.88,2.02-2.08,4.48-4.18,8.96-6.25,13.44-.28.62-.52,1.27-.66,1.94-.16.75-.22,1.54.07,2.22.52.38,1.03.27,1.51.27,2.45.01,4.9,0,7.34,0,.39,0,.79-.02,1.17.04.27.05.52.22.73.32.49,1.11-.11,2.33.5,3.32,1.31.31,1.84.28,2.73-.15.38-1.04-.2-2.24.43-3.31.45-.15.9-.3,1.35-.45.22-.92.25-1.77-.03-2.66-.47-.16-.92-.31-1.27-.42-.43-.52-.34-1.02-.35-1.51-.01-1.62,0-3.23-.02-4.85,0-.32-.12-.64-.17-.93-1.32-.29-1.8-.29-2.85.05-.03.26-.1.54-.11.82-.02.88,0,1.76,0,2.64,0,.93,0,1.86,0,2.79,0,.41-.1.78-.47,1.01-.98.2-3.65.27-5.85.16-.28-.01-.56-.09-1.02-.17Zm400.68,6.27c-1.17-.94-2.2-1.77-3.22-2.6-.8-.65-1.6-1.29-2.37-1.97-.51-.45-1.04-.91-1.09-1.79.16-.26.34-.61.58-.9.72-.86,1.49-1.69,2.22-2.55.48-.56.94-1.13,1.37-1.73.42-.58.62-1.22.21-2.11-.36-.29-.83-.71-1.34-1.08-.88-.62-1.8-1.19-2.69-1.8-.39-.27-.87-.48-1.01-1-.03-.48.32-.7.63-.93.59-.44,1.2-.85,1.76-1.32.5-.42.76-.99.9-1.64.12-.55.16-1.06-.23-1.59-.2.15-.39.29-.56.45-1.07.93-2.11,1.9-3.22,2.79-1.2.96-2.16,2.13-3.12,3.3-.4.49-.7,1.06-.76,1.72.24,1.01.82,1.77,1.65,2.35.8.57,1.6,1.13,2.39,1.71.31.23.68.41.71.93-1.45,2.04-3.31,3.8-4.67,5.73-.31,1.21-.03,2.13.54,2.97.22.32.49.61.75.9,1.58,1.75,3.69,2.72,5.69,3.84.23.13.56.08.91.12,1.24-1.3,2.81-2.25,4-3.81Zm-448.4.72c.02-.63.04-1.11.04-1.6,0-7.2,0-14.39,0-21.59,0-.29.01-.59,0-.88-.02-.28-.09-.56-.14-.87-.94-.17-1.82-.15-2.69-.08-.19.02-.38.09-.56.17-1.21.55-2.28,1.31-3.25,2.18-.1,1.02-.21,1.97.04,2.98,1.13-.3,1.91-1.13,3.03-1.44.13.36.3.66.35.97.06.43.03.88.03,1.32,0,5.63,0,11.26,0,16.89,0,.39-.02.79.01,1.17.02.28.12.55.18.83.98.15,1.89.19,2.96-.05Zm379.72-17.41c.16.26.28.47.41.68.85,1.26,1.5,2.62,2.07,4.03.79,1.96,1.37,3.97,1.88,6.01.65,2.61,1.22,5.23,1.84,7.84.15.62.33,1.22.5,1.83.04.14.13.14.3-.18.12-.41.34-1.02.45-1.64.3-1.63.61-3.26.81-4.91.19-1.6.2-3.21-.07-4.82-.57-3.34-1.59-6.55-2.87-9.67-.55-1.35-1.16-2.7-1.94-3.94-.17-.27-.42-.5-.65-.76-.78.97-1.93,3.31-2.73,5.51Z"/>
      <path class="cls-1" d="m224.17,435.85c.03-.41.09-.74.09-1.08,0-2.06,0-4.12-.02-6.17,0-.68-.12-1.36-.15-2.05-.04-.83-.06-1.66-.07-2.5-.01-.98,0-1.96-.02-2.94-.02-.8.14-1.56.51-2.27.88-1.7,1.82-3.36,2.94-4.91.19-.27.47-.47.66-.67.4.05.5.3.53.53.08.48.13.97.13,1.45,0,2.45-.01,4.9-.04,7.35-.01,1.17.05,2.35-.19,3.51-.08.38-.04.78-.04,1.17,0,1.22-.04,2.45,0,3.67.05,1.46.16,2.93.27,4.39.06.7.42,1.09,1.1,1.17,1.07.13,2.14.23,3.21.31,1.12.08,2.24.12,3.42.18.41-.14.65-.48.68-.97.03-.59.07-1.18.05-1.76-.05-1.22.27-2.32.98-3.31.54-.76,1.03-1.55,1.55-2.32.19-.28.41-.53.58-.75.39-.09.55.11.64.34.28.69.41,1.37.28,2.14-.23,1.3-.33,2.62-.47,3.93-.02.19-.01.39,0,.59.05,1.46,1.05,2.09,2.4,1.48.26-.12.52-.28.75-.46.82-.62,1.64-1.24,2.43-1.9,1.39-1.16,2.72-2.4,4.15-3.5,1.44-1.1,2.95-2.1,4.47-3.08.95-.61,2.02-.99,3.11-1.29,1.71-.48,3.19-.13,4.44,1.16.85.89,1.6,1.84,2.17,2.94.8,1.54,1.02,3.15.67,4.84-.04.19-.04.38-.05.58,0,.04.05.08.07.12.89.05,4.41-.48,6.76-1.04.27-.07.52-.23.81-.36.28-1.14.28-2.29.02-3.37-.34-1.43-.05-2.73.41-4.02.46-1.29,1.14-2.49,1.95-3.61.08-.11.22-.17.31-.24.35,0,.46.23.52.47.17.71.37,1.42.46,2.15.16,1.36.23,2.73.36,4.09.07.68.18,1.35.32,2.02.11.54.41.99.97,1.36,2,.46,3.96-.31,5.89-.63.46-.4.39-.86.38-1.29-.03-1.19.19-2.34.44-3.48.41-1.89,1.21-3.62,2.24-5.24.73-1.16,1.54-2.26,2.33-3.39.77-1.09,1.81-1.76,3.1-1.96,1.13.22,1.87.85,2.48,1.75.9,1.31,1.62,2.66,1.94,4.24.23,1.13.21,2.24.08,3.36-.09.82-.22,1.63-.32,2.4.34.27.63.18.91.1,1.59-.49,3.18-.98,4.76-1.5.65-.21,1.29-.47,1.92-.73.31-.13.6-.3.94-.47-.06-.33-.07-.63-.17-.89-1.37-3.52-2.93-6.95-5.28-9.96-.49-.62-1.02-1.18-1.66-1.65-.39-.28-.71-.65-1.08-.99-.05-2.45-.12-4.84.4-7.21.06-.28.16-.57.29-.83.11-.24.33-.34.72-.23.16.24.39.55.59.88.41.7.98,1.2,1.69,1.59,1.21.68,2.49,1.14,3.82,1.49.52.14,1.05.23,1.56.41.31.11.57.33.88.53-.08.68-.12,1.31-.24,1.93-.29,1.49-.6,2.97-.95,4.45-.17.7-.16,1.35.12,2.01.3.72.61,1.44.92,2.16.51,1.17.97,2.36,1.55,3.49.97,1.9,1.48,3.93,1.91,6,.23,1.1.38,2.22.56,3.33.04.24.06.49.07.73.04,1.06-.32,1.65-1.28,2.08-.36.16-.74.25-1.11.4-3.59,1.46-7.31,2.52-11.06,3.45-4.04,1.01-8.04,2.13-12.08,3.12-2.04.5-4.12.86-6.18,1.26-.76.15-1.47-.07-2.05-.59-.36-.32-.67-.71-.97-1.09-.27-.34-.5-.72-.73-1.05-.4-.02-.43.26-.49.47-.18.61-.35,1.22-.48,1.85-.16.83-.65,1.27-1.47,1.41-.72.12-1.43.33-2.16.43-1.21.17-2.43.24-3.64.42-1.7.26-3.42.15-5.12.34-1.56.17-3.13.1-4.68.27-1.85.2-3.72.13-5.56.31-1.56.16-3.13.11-4.68.27-1.81.19-3.61.22-5.42.29-.29.01-.57.13-.87.15-1.15.11-2.13-.17-2.76-1.24-.29-.5-.62-.99-.92-1.45-.37-.03-.46.23-.57.44-.25.48-.47.97-.71,1.45-.35.7-.93.97-1.7.87-.82-.11-1.64-.26-2.47-.36-1.5-.18-3.01-.34-4.51-.5-1.8-.18-3.6-.35-5.4-.5-.68-.06-1.37-.08-2.05-.05-.99.04-1.73.47-2.27,1.37-.7,1.18-1.49,2.3-2.29,3.41-.76,1.06-1.83,1.76-3.03,2.24-.91.37-1.87.57-2.84.74-1.98.35-3.98.6-5.99.4-2.41-.25-4.71-.88-6.66-2.45-1.62-1.31-2.47-3-2.61-5.06-.15-2.25.3-4.39,1.24-6.42,1.05-2.27,2.35-4.4,3.89-6.38.87-1.13,1.84-2.16,2.87-3.14.79-.75,1.71-1.28,2.96-1.58.09.09.22.21.33.33-.5,1.05-1.11,1.82-1.67,2.61-.82,1.16-1.61,2.33-2.26,3.6-.7,1.37-1.19,2.82-1.33,4.33-.22,2.29.55,4.12,2.61,5.35,1.23.74,2.58,1.15,3.98,1.44,1.94.39,3.9.28,5.86.28.45,0,.45-.02,1.11-.41-.21-1.68-1.06-2.88-2.7-3.45-1.06-.37-2.15-.66-3.22-1.01-.41-.13-.8-.32-1.07-.43-.36-.5-.32-.89-.15-1.25.2-.45.41-.9.68-1.3.87-1.3,1.76-2.59,2.66-3.88.45-.65,1.07-1.01,1.88-.92,1.12.12,2.23.27,3.34.43,1.69.24,3.38.5,5.08.75.48.07.96.16,1.45.22.73.09,1.46.19,2.35-.03Zm24.57.65c.16.02.3.07.44.07,1.91-.01,3.81-.03,5.72-.05.24,0,.49-.04.73-.06.68-.06,1.36-.13,2.04-.16.59-.03,1.17,0,1.76-.03.23,0,.5.01.61-.33-.21-.8-.65-1.5-1.3-2.03-1.21-1.01-2.53-1.58-4.18-1.11-1.93.55-4.13,1.89-5.82,3.73Zm42.43-10.73c-.92.25-1.56.77-2.14,1.37-.3.31-.55.69-.75,1.08-.31.58-.18,1.26.34,1.57,1.35.81,2.78.88,4.22.29.8-.33,1.08-1.02.74-1.83-.46-1.08-1.02-2.13-2.4-2.48Z"/>
      <path class="cls-1" d="m152.41,422.6c-.27.07-.5.13-.73.18-.6.13-1.17.05-1.71-.25-1.51-.81-3.03-1.61-4.53-2.44-.73-.41-.84-.59-1.4-1.81-.13,0-.29-.03-.42,0-.88.27-1.63,0-2.35-.5-.73-.5-1.47-.97-2.2-1.47-1.65-1.15-3.29-2.31-4.93-3.46-.08-.06-.16-.11-.24-.16-.64-.44-.87-1.04-.64-1.79.19-.61.4-1.21.58-1.82.07-.22.1-.46.17-.8-1.32.42-2.18,1.47-3.53,1.79-.28-.15-.65-.29-.96-.51-1.98-1.43-3.96-2.88-5.93-4.33-.82-.61-1.62-1.26-2.42-1.91-.5-.41-.98-.81-1.73-.98-.37.17-.81.37-1.25.59-1.53.77-3.06,1.56-4.59,2.32-1.16.57-2.39.84-3.69.84-1.25,0-2.3-.43-3.18-1.29-.63-.61-1.26-1.24-1.81-1.93-1.01-1.26-1.98-2.55-2.78-3.96-.41-.73-.8-1.47-.95-2.3-.03-.15.08-.33.14-.54.69.12,1.13.54,1.6.86,1.74,1.14,3.6,2,5.65,2.38,2.07.39,4.15.73,6.26.25.46-.1.97.03,1.37-.23.02-.12.05-.18.04-.21-.4-.55-.8-1.1-1.21-1.65-.35-.47-.72-.93-1.07-1.4-1.35-1.83-1.09-4.3.44-5.93,1.21-1.29,2.51-2.47,3.94-3.52,2.39-1.75,4.99-3.1,7.74-4.15.72-.28,1.51-.46,2.28-.53.89-.08,1.76.17,2.47.75.25.21.46.52.59.82.32.74.37,1.51.19,2.3-.25,1.16-.68,2.25-1.17,3.32-.76,1.65-1.62,3.24-2.62,4.76-.24.37-.51.72-.49,1.17.92,1.09,5.63,4.64,8.08,6.09.31-.06.31-.33.34-.56.14-1-.23-1.84-.85-2.57-.41-.48-.91-.89-1.37-1.33-.21-.2-.42-.39-.67-.63.11-.2.16-.41.29-.52,1.39-1.08,2.83-2.09,4.37-2.96,3.63-2.04,8.13.59,9.08,3.8.46,1.55.57,3.07.14,4.62-.39,1.44-1.26,2.52-2.53,3.29-.71.43-1.41.86-2.06,1.25-.08.39.11.57.31.71,1.34.99,2.72,1.93,4.23,2.65.5.24,1,.4,1.66.18.14-.12.39-.29.57-.51.86-1.02,1.91-1.82,3.06-2.5,1.01-.6,2.02-1.2,3.04-1.77.29-.16.63-.27.96-.34.16-.03.35.08.57.13-.08.69-.49,1.13-.86,1.57-.92,1.08-1.88,2.13-2.81,3.19-.64.73-1.28,1.46-1.92,2.2,1.04.7,4.13,2.35,5.2,2.77.21-.19.48-.38.69-.63.22-.26.36-.59.58-.85.47-.56.91-1.17,1.48-1.62,1.31-1.03,2.77-1.84,4.29-2.53.13-.06.28-.07.42-.06.08,0,.16.09.32.18-.33,1.38-1.14,2.55-1.9,3.72-.77,1.17-1.71,2.24-2.63,3.43.44.65,1.2.91,1.84,1.32.42.27.87.46,1.53.21.14-.22.39-.52.55-.87.38-.83.98-1.44,1.67-2.01.84-.69,1.72-1.29,2.65-1.84.46-.27.9-.58,1.42-.61.35.23.34.54.28.82-.08.33-.21.65-.35.96-.56,1.25-1.15,2.49-1.7,3.75-.29.67-.66,1.32-.5,2.08.17.42.46.68.83.83,1.58.66,3.16,1.31,4.74,1.95.04.02.09-.01.25-.04.11-.17.32-.39.41-.65.83-2.35,1.72-4.69,2.21-7.15.34-1.68.59-3.37.51-5.09-.02-.44-.11-.87-.2-1.3-.12-.56-.03-1.07.3-1.54.17-.24.31-.51.51-.71,1.36-1.41,2.68-2.86,4.29-4.01.31-.22.68-.37,1.04-.51.1-.04.26.06.42.09.03.16.1.31.07.43-.51,1.99.02,3.77,1.02,5.48.64,1.09,1.29,2.19,1.91,3.25,0,.55-.3.85-.67,1.12-1.3.96-2.56,1.98-3.9,2.87-1.08.72-1.76,1.65-2.13,2.88-.57,1.87-1.17,3.74-1.8,5.59-.46,1.35-1.02,2.66-1.75,3.88-.83,1.39-1.72,2.73-2.59,4.1-.13.21-.29.4-.44.59-.58.73-1.29,1.04-2.2.62-.13-.06-.28-.08-.42-.14-2.29-.86-4.58-1.72-6.87-2.59-.7-.26-1.33-.62-1.81-1.36-.06-.38-.13-.85-.19-1.28-.55.14-1.06.33-1.58.38-.54.05-1.04-.18-1.52-.46-1.01-.6-2.03-1.19-3.08-1.72-.79-.4-1.39-.9-1.53-1.82-.01-.09-.1-.16-.25-.39Zm-28.82-31.09c.48-.36.69-.84.72-1.39.04-.71.21-1.45-.3-2.16-.54-.16-1.1-.25-1.62,0-.71.61-.65,1.28-.37,2.02.29.76.63,1.41,1.56,1.53Z"/>
      <path class="cls-1" d="m372.22,355.1c.36.11.55.14.72.23,1.55.86,3.21.82,4.86.51,1.34-.25,2.66-.62,3.97-.94.58.09.85.48,1.02.96.21.6.4,1.21.61,1.81.41,1.15.82,2.31,1.23,3.46.29.8.75,1.44,1.47,1.95,1.93,1.34,3.8,2.76,5.72,4.12,1.49,1.06,2.71,2.4,3.92,3.75.78.87,1.5,1.81,2.22,2.74.62.8.65,1.45.08,2.29-.44.65-.93,1.26-1.43,1.86-1.25,1.5-2.52,2.99-3.8,4.47-.35.41-.74.79-1.16,1.13-.76.61-1.62.9-2.6.61-.52-.15-1.03-.31-1.55-.46-.23-.07-.46-.18-.76.06.06,1.19,1.02,2.17,1.03,3.43-.23.71-.7,1.27-1.23,1.78-1.09,1.05-2.2,2.09-3.3,3.14-.74.71-1.48,1.42-2.23,2.14-.53.51-1.09.97-1.71,1.27-.76-.13-1.17-.63-1.62-1.07-2.2-2.16-4.39-4.34-6.6-6.49-3.23-3.14-6.47-6.27-9.7-9.4-.21-.2-.43-.4-.66-.58-.72-.57-1.19-1.3-1.38-2.19-.26-1.24-.49-2.49-.73-3.74-.07-.38-.15-.77-.19-1.16-.02-.23.02-.46.04-.78.27.04.49,0,.62.09.36.24.71.51,1.03.81,1.2,1.15,2.38,2.33,3.58,3.48,2.23,2.13,4.46,4.26,6.7,6.38,1.28,1.21,2.57,2.41,3.85,3.62.18.17.35.34.54.5.41.32.81.33,1.21.04.12-.09.23-.18.33-.29,1.37-1.4,2.75-2.79,4.12-4.19.17-.17.27-.4.45-.66-.17-.29-.3-.61-.51-.85-.52-.58-1.06-1.16-1.63-1.69-.81-.75-1.35-1.67-1.75-2.68-.69-1.76-.9-3.59-.65-5.47,0-.04.06-.08.14-.18.15.07.33.11.47.22.92.73,1.77,1.53,2.51,2.46.76.96,1.61,1.84,2.41,2.76.6.68,1.33,1.14,2.18,1.34.9-.19,1.6-.62,2.16-1.27.95-1.12,1.88-2.25,2.81-3.39.15-.18.24-.42.39-.67-.17-.21-.3-.42-.48-.57-2.57-2.04-5.24-3.96-8.25-5.32-1.38-.62-2.78-1.22-4.33-1.3-.67-.03-1.09-.44-1.38-.97-.85-1.54-1.85-3.01-2.41-4.69-.19-.55-.36-1.11-.5-1.68-.04-.16.06-.36.13-.7Z"/>
      <path class="cls-1" d="m346.85,397.86c-.1.06-.22.14-.31.2-.51-.05-.79-.44-1.15-.67-.89-.58-1.62-.56-2.41.13-.36.32-.69.7-.96,1.1-1.42,2.09-1.77,4.42-1.5,6.88.1.87.61,1.33,1.47,1.32.38,0,.78-.06,1.15-.19,1.44-.48,2.86-1,4.3-1.49.6-.2,1.2-.42,1.82-.55,1.67-.33,2.94.33,3.46,1.95.6,1.86,1.07,3.76,1.56,5.66.21.8.31,1.63.5,2.44.15.64.11,1.25-.03,1.88-.4,1.78-.96,3.5-1.72,5.14-1.71,3.67-4.43,6.29-8.31,7.61-2.62.9-4.89.32-6.88-1.57-1.12-1.06-1.99-2.29-2.74-3.61-1.78-3.12-3.1-6.43-3.92-9.94-.25-1.09-.44-2.2-.66-3.28.16-.14.26-.23.42-.36.88.58,1.29,1.45,1.59,2.39.34,1.07.62,2.17,1,3.22.33.92.73,1.82,1.18,2.68.26.51.65.97,1.04,1.41.65.74,1.48,1.04,2.48,1.07,1.6.06,3.1-.23,4.52-1,2.99-1.6,5.45-3.78,7.47-6.49.26-.35.48-.74.68-1.13.08-.15.04-.36.05-.5-.33-.29-.6-.16-.87-.05-1.4.59-2.79,1.18-4.19,1.77-1,.42-2.03.71-3.13.69-.68-.01-1.26-.22-1.7-.73-.38-.44-.75-.9-1.05-1.4-1.04-1.75-1.54-3.7-1.9-5.68-.24-1.34-.45-2.7-.55-4.06-.18-2.55-.09-5.09.58-7.58.33-1.25.89-2.39,1.79-3.33.37-.38.81-.71,1.26-.99,1.1-.67,3.1-.1,3.89,1.14.23.37.45.77.57,1.18.44,1.45.85,2.91,1.26,4.37.02.09-.01.19-.03.32Z"/>
      <path class="cls-1" d="m93.14,349.74c-.06.16-.08.36-.18.5-.38.54-.92.88-1.51,1.13-.95.4-1.89.8-2.85,1.18-1.28.51-2.46,1.22-3.56,2.03-1.44,1.05-1.93,2.47-1.64,4.25.31,1.85,1.15,3.38,2.29,4.84,1.88,2.39,4.21,4.22,6.75,5.82.2.13.43.22.66.3.16.06.29,0,.82-.34-.12-.29-.21-.62-.36-.91-.7-1.29-1.43-2.57-2.11-3.87-.31-.6-.57-1.25-.78-1.9-.43-1.3-.1-2.43.96-3.29.6-.49,1.27-.92,1.95-1.3,2.11-1.18,4.4-1.88,6.77-2.34,2.45-.48,4.91-.85,7.42-.74,1.24.05,2.42.32,3.57.75.79.29,1.45.77,2.07,1.36,1.72,1.62,1.07,4.16-.73,5.07-.57.29-1.15.54-1.74.78-1.13.47-2.26.91-3.32,1.34-.32-.14-.36-.33-.27-.52.18-.4.41-.78.59-1.18.5-1.11.29-2.01-.73-2.68-.61-.4-1.29-.71-1.97-.96-1.59-.58-3.24-.73-4.92-.59-.75.06-1.42.34-1.92.9-.25.61-.2,1.19,0,1.75.18.51.38,1.01.61,1.49.51,1.11,1.02,2.22,1.56,3.32.39.8.68,1.62.8,2.54-.05,1.24-.77,2.04-1.88,2.53-.98.43-1.97.87-2.98,1.24-1.47.53-2.97.98-4.45,1.51-.91.33-1.83.37-2.75.2-2.17-.39-4.32-.87-6.35-1.76-1.09-.47-2.07-1.12-2.97-1.88-1.47-1.24-2.67-2.72-3.61-4.41-1.04-1.86-1.21-3.8-.48-5.8.32-.88.88-1.63,1.52-2.32,1-1.09,2.12-2.03,3.32-2.88,3.39-2.41,7.14-4.05,11.1-5.25.42-.13.85-.27,1.31.09Z"/>
      <path class="cls-1" d="m97.34,380.5c.02-.14.02-.19.04-.23.05-.08.09-.18.16-.24,2.4-1.86,4.67-3.87,6.9-5.92.1-.09.26-.13.36-.17.47-.05.79.19,1.06.48.78.81,1.55,1.64,2.32,2.45,1.22,1.27,2.44,2.54,3.66,3.81.1.1.24.15.35.21.39,0,.52-.27.66-.53,1.28-2.29,1.44-4.74,1.03-7.27-.12-.73-.26-1.44-.07-2.21.64-.68,1.49-1.05,2.3-1.5.86-.47,1.7-.98,2.56-1.43.81-.43,1.52-1.09,2.57-1.24.14.21.4.42.43.67.08.63.06,1.27.09,1.9.2,4.27-1.38,7.93-3.82,11.31-1.13,1.56-2.58,2.82-3.96,4.13-1.24,1.18-2.57,2.26-3.89,3.35-.8.65-1.7,1.15-2.64,1.57-.71.32-1.35.21-1.91-.27-.41-.35-.78-.74-1.15-1.14-1.11-1.18-2.21-2.36-3.31-3.54-1.17-1.25-2.34-2.51-3.5-3.77-.12-.14-.2-.32-.26-.43Z"/>
      <path class="cls-1" d="m356.35,401.2c.27-.53.79-.9,1.3-1.28,1.79-1.37,3.58-2.73,5.37-4.1.34-.26.73-.5.86-1.08-.2-.2-.4-.48-.67-.65-1.61-.98-3.32-1.66-5.26-1.61-.83.02-1.66.04-2.5.04-.43,0-.87-.03-1.26-.05-.72-.76-.91-1.71-1.33-2.52-.45-.87-.81-1.78-1.2-2.68-.37-.85-.72-1.71-1.05-2.5.14-.49.48-.55.83-.57,1.53-.11,3.03.06,4.51.45,2.24.6,4.33,1.52,6.24,2.87,1.29.91,2.42,2.01,3.42,3.21,1.82,2.18,3.61,4.39,5.1,6.81.57.92,1.07,1.87,1.39,2.91.24.79.1,1.45-.52,2-.29.26-.58.53-.89.77-2.41,1.84-4.82,3.69-7.24,5.51-.5.37-.96.85-1.67.96-.16-.2-.34-.37-.46-.57-1.35-2.34-2.99-4.48-4.59-6.64-.27-.36-.52-.72-.37-1.27Z"/>
      <path class="cls-1" d="m311.2,401.1c.49-.09.71.27.9.6.45.75.89,1.52,1.32,2.29,1.98,3.54,3.95,7.09,5.68,10.76.83,1.77,1.66,3.54,2.37,5.36,1.1,2.84,1.77,5.79,1.68,8.87-.01.34,0,.69-.08,1.02-.05.21-.22.4-.39.71-.25-.31-.46-.51-.6-.75-.64-1.1-1.27-2.2-1.89-3.31-1.28-2.31-2.53-4.63-3.81-6.94-1.23-2.22-2.48-4.44-3.71-6.66-.26-.47-.49-.96-.77-1.42-.67-1.12-1.02-2.32-.92-3.64.02-.34.02-.69-.05-1.02-.32-1.6-.14-3.22-.16-4.83,0-.39.04-.79.42-1.03Z"/>
      <path class="cls-1" d="m406.49,364.99c-.46.27-.77.07-1.06-.1-.9-.5-1.8-1-2.68-1.53-3.37-2-6.73-4.01-10.1-6-1.81-1.07-3.62-2.14-5.45-3.19-.69-.4-1.31-.88-1.73-1.55-1.28-2.03-2.53-4.08-3.78-6.12-.1-.16-.15-.36-.25-.61.15-.16.29-.32.4-.44.2.03.31.01.39.06,3.3,1.81,6.57,3.69,9.74,5.73,2.18,1.41,4.34,2.84,6.47,4.33,3.03,2.13,5.62,4.72,7.57,7.9.42.69.43.69.49,1.52Z"/>
      <path class="cls-1" d="m194.31,407.43c-.19.94-.36,1.84-.56,2.75-1.29,5.78-2.7,11.53-4.66,17.13-.95,2.7-2.31,5.19-4.03,7.46-.5.66-1.12,1.23-1.7,1.83-.2.2-.45.39-.8.21-.2-.37-.03-.76.05-1.12.75-3.24,1.51-6.48,2.28-9.71.86-3.62,1.74-7.23,2.57-10.85.18-.79.51-1.48.99-2.11,1.51-2,3.26-3.78,5.06-5.51.18-.17.38-.32.8-.07Z"/>
      <path class="cls-1" d="m79.67,372.22c.48.43.58.85.58,1.3,0,.88,0,1.76-.01,2.64,0,.19-.04.39-.08.58-.17.72-.47.99-1.2,1.06-.24.03-.49.01-.73.03-.68.05-1.36.1-2.04.18-1.08.12-1.69-.33-1.79-1.42-.06-.63-.02-1.27-.03-1.91,0-.53-.02-1.07-.04-1.62-.73-.34-1.45-.42-2.17-.51-.29-.04-.58-.09-.86-.15-.09-.02-.16-.1-.27-.17-.31-.32-.42-.76-.45-1.19-.06-.83-.09-1.66-.07-2.49.02-.83.43-1.31,1.24-1.36,1.36-.09,2.73-.09,4.13,0,.1.34.23.61.25.88.03.68.01,1.37.02,2.05,0,.49.03.97.05,1.49,1.14.52,2.33.44,3.47.61Z"/>
      <path class="cls-1" d="m357.25,426.68c.1.38.22.7.26,1.03.13,1.18-.19,2.33-.3,3.49-.05.48-.39.77-.91.92-1.34-.18-2.74-.34-4.08-.14-.53.46-.52,1.01-.55,1.54-.04.54-.09,1.08-.6,1.54-.2.03-.48.12-.76.12-.98,0-1.96.03-2.93-.08-1.07-.12-1.43-.65-1.33-1.71.09-.87.19-1.74.28-2.62.04-.4.14-.77.42-1.08.49-.34,1.02-.19,1.54-.07.91.21,1.83.26,2.77.09.81-.98.32-2.33.98-3.33.29-.43.74-.42,1.18-.38.92.09,1.84.18,2.76.31.42.06.83.24,1.28.37Z"/>
      <path class="cls-1" d="m272.35,448.63c.53.02.95.38,1.42.63.35.18.66.41,1.01.6.32.17.32.16,1.16.14.83-.65.79-2,1.91-2.55,1.14.46,2.22,1.12,3.31,1.74.28.16.47.47.73.72-.28,1.38-.7,2.67-1.34,3.88-.13.24-.39.41-.6.62-1.4-.26-2.46-1.23-3.75-1.63-.8.59-.82,1.61-1.53,2.24-.53.29-1.1.14-1.63-.12-.95-.47-2.04-.76-2.53-1.91-.01-1.14.65-2.1,1.02-3.15.16-.44.3-.94.83-1.22Z"/>
      <path class="cls-1" d="m292.64,409.58c-.28.68-.48,1.28-.76,1.84-.44.87-.92,1.72-1.41,2.57-.32.56-.34.55-1.23,1.11-.27-.08-.62-.13-.9-.3-1.06-.61-2.1-1.25-3.13-1.9-.21-.13-.38-.31-.57-.46-.64-.53-.86-1.18-.54-1.96.5-1.22,1.02-2.43,1.54-3.64.13-.31.29-.62.48-.91.34-.54.8-.66,1.39-.41.09.04.18.08.26.13,1.44.93,2.92,1.8,4.13,3.02.24.24.43.52.74.9Z"/>
      <path class="cls-1" d="m364.07,362.8c.16-.76.58-1.03,1.07-1.12,1.48-.27,2.98-.49,4.46-.74.93-.16,1.38.3,1.55.97.37,1.46.73,2.93,1.02,4.41.16.78-.25,1.32-1.04,1.5-1.04.23-2.1.4-3.15.6-.38.07-.76.16-1.15.23-.39.07-.77.13-1.22-.11-.07-.09-.23-.23-.29-.4-.54-1.77-1-3.56-1.26-5.34Z"/>
      <path class="cls-1" d="m202.25,456.68c1.01-.09,1.38-1.06,2.29-1.27.2.12.5.22.69.41.63.67,1.4,1.23,1.81,2.2-.22,1.14-1.06,1.89-1.93,2.59-.28.23-.67.21-.98.02-.41-.26-.79-.57-1.17-.87-.41-.33-.68-.84-1.27-1.01-.67.27-1.1.99-1.96,1.08-1.06-.22-1.61-1.09-2.12-1.99-.2-.36-.2-.81.08-1.12.55-.62,1.13-1.21,1.75-1.76.32-.28.74-.24,1.09.04.27.21.5.47.74.71.34.34.68.68.98.98Z"/>
      <path class="cls-1" d="m351.03,62.49q.2-.76.83-1.28c.23.09.52.14.76.29,2.84,1.84,5.66,3.69,8.49,5.53.33.21.66.43.8.86.02.53-.28.88-.7,1.15-.51.17-1,.09-1.47-.04-.58-.16-1.15-.16-1.74,0-1.75.45-3.51.86-5.27,1.31-2.27.59-4.54,1.2-6.82,1.79-.43.11-.85.24-1.15.59-.25.46-.17.96-.18,1.44,0,5.1.02,10.19,0,15.29,0,1.7.16,3.33,1.17,4.68.05.77-.32,1.17-.96,1.47-.24-.12-.51-.21-.75-.37-2.91-1.9-5.82-3.8-8.73-5.7-.4-.26-.87-.47-1.06-1.12.11-.26.26-.6.4-.91.72-.23,1.37-.43,1.91-.61.13-.19.22-.27.22-.36.13-1.31.3-2.62.35-3.94.06-1.81,0-3.63.02-5.44.02-1.52-.03-3.03-.39-4.64-.11-.15-.26-.4-.46-.61-.2-.21-.44-.37-.72-.61-.23.24-.47.42-.62.65-1.76,2.71-3.52,5.42-5.24,8.16-.33.53-.5,1.16-.75,1.78.22.48.41.92.62,1.36.49,1.01.45,1.16-.48,1.96-.48.06-.82-.25-1.19-.48-2.01-1.31-4.02-2.62-6.03-3.93-.82-.53-1.66-1.04-2.47-1.59-.27-.18-.49-.44-.73-.66.07-.65.31-1.09.93-1.38.21.02.5.04.79.09.91.16,1.65-.14,2.24-.81.33-.36.63-.75.9-1.16,1.4-2.13,2.79-4.26,4.18-6.4,2.62-4.02,5.23-8.05,7.85-12.07.32-.49.66-.97.72-1.59.07-.75.07-1.47-.44-2.09-.12-.15-.18-.34-.27-.52.05-.66.35-1.11.99-1.38.63.24,1.2.62,1.76.99,2.43,1.57,4.84,3.15,7.26,4.74.49.32,1.03.58,1.23,1.15-.07.65-.4,1.03-.93,1.21-.13.02-.24.06-.32.04-1.32-.42-2.28.15-3.08,1.13-.18.23-.34.48-.5.72-1.47,2.26-2.94,4.51-4.41,6.77-.1.16-.19.34-.32.58.19.21.35.47.58.61.84.49,1.76.62,2.7.4,3.01-.69,5.97-1.55,8.82-2.75.78-.33,1.47-.79,1.99-1.47.46-.6.72-1.15.14-2.01-.19-.28-.33-.59-.47-.84Z"/>
      <path class="cls-1" d="m373.3,120.81c-.3.96-.08,1.62.04,2.27-.13.61-.49.97-1.01,1.17-.42.02-.66-.22-.86-.51-.75-1.03-1.5-2.06-2.24-3.09-.82-1.16-1.64-2.32-2.45-3.48-.19-.28-.35-.58-.5-.84.13-.68.55-.96,1.2-1.11.25.11.57.22.86.38.95.51,1.95.61,2.99.35,2.33-.57,4.66-1.14,6.98-1.75,3.83-1.01,7.65-2.06,11.48-3.09,3.02-.82,6.05-1.63,9.07-2.44.52-.14,1.04-.26,1.47-.37.52.03.87.2,1.11.53,1,1.39,1.98,2.79,2.97,4.19.05.08.06.18.1.33-.06.85-.71,1.44-1.19,2.09-.73.98-1.52,1.92-2.27,2.88-3.43,4.4-6.86,8.8-10.29,13.2-1.14,1.47-2.3,2.92-3.44,4.39-.24.31-.45.64-.69.95-.66.9-1.03,1.88-.88,3.02.04.33,0,.68,0,.89-.34.59-.74.83-1.28.84-.57-.27-.81-.84-1.15-1.3-3.35-4.5-5.95-8.28-6.37-9.19.16-.48.52-.76,1.08-.9.8.09,1.41.85,2.36.79.55-.09,1-.46,1.43-.86,1.52-1.39,2.8-2.93,3.44-4.16-.49-1.08-3.06-4.83-4.89-7.12-.24-.3-.51-.56-.8-.87-2.32.63-4.63,1.08-6.28,2.81Zm9.88-3.93c.01.29-.02.41.03.48,1.39,1.94,2.79,3.88,4.19,5.81.05.06.17.07.32.14.69-.78,1.34-1.63,2-2.47.63-.81,1.3-1.58,1.94-2.38.67-.84,1.37-1.66,1.98-2.54.59-.86,1.44-1.53,1.92-2.66-4.19,1.3-8.29,2.35-12.37,3.62Z"/>
      <path class="cls-1" d="m112.53,116.37c-.5,1-4.67,6.94-6.85,9.75-.18.23-.41.41-.58.58-1.06-.07-1.34-.3-1.36-1.16-.02-.73.14-1.47-.1-2.22-.79-.83-1.83-1.28-2.86-1.72-.76-.33-1.55-.6-2.33-.88-.23-.08-.47-.11-.72-.14-.14-.01-.29.05-.54.09-1.78,2.47-3.61,5.01-5.4,7.49.04.25.03.41.1.53.79,1.36,1.67,2.65,2.83,3.73.78.72,1.64,1.26,2.98.9.25-.14.67-.38,1.14-.64.22.08.47.11.66.24.55.39.65.85.3,1.38-.43.65-.9,1.28-1.35,1.92-1,1.39-1.99,2.79-3,4.18-.31.43-.66.84-.96,1.22-.78.19-1.19-.16-1.49-.68-.02-.14-.07-.25-.05-.33.45-1.43.04-2.71-.68-3.92-.5-.84-1.02-1.67-1.56-2.49-4.53-6.81-9.07-13.61-13.61-20.41-.3-.45-.63-.87-.93-1.32-.19-.28-.33-.59-.53-.94.2-.39.35-.82.61-1.15,1.02-1.3,1.8-2.8,2.94-3.88.71-.24,1.27-.08,1.83.12,2.22.78,4.43,1.55,6.65,2.33.69.24,1.38.5,2.07.74,5.64,1.97,11.27,3.95,16.91,5.91.37.13.75.22,1.13.32.98.26,1.93.24,2.84-.29.25-.15.53-.24.77-.34.59.22.98.54,1.13,1.08Zm-30.21-1.41l-.08-.06s.06.03.09.05c.11.67.63,1.09.99,1.6,1.87,2.74,3.77,5.46,5.66,8.19.19.27.3.63.79.68.52-.31.76-.93,1.15-1.4.41-.48.73-1.04,1.09-1.56.39-.56.82-1.1,1.19-1.67.33-.51.89-.9.98-1.61-.2-.11-.36-.23-.54-.29-3.35-1.21-6.7-2.42-10.05-3.62-.41-.15-.85-.21-1.27-.32Z"/>
      <path class="cls-1" d="m380.55,95.29c-.92-.56-1.68-1.21-2.08-2.19,0-.69.36-1.24.52-1.85.48-1.81.51-3.6-.72-5.17-.85-1.09-2.01-1.74-3.37-1.9-1.64-.2-3.6.74-4.35,3.02-.27.83-.36,1.68-.19,2.59.24,1.25.53,2.49.92,3.7.57,1.72,1.05,3.46,1.36,5.25.53,3.11-.27,5.82-2.42,8.12-.5.54-1.03,1.05-1.62,1.49-2.71,2.06-5.68,2.21-8.75,1.04-1.85-.71-3.44-1.83-4.87-3.21-2.08-2.02-3.94-4.22-5.66-6.55-.29-.4-.58-.79-.62-1.4.11-.18.22-.47.42-.66,1.45-1.31,2.92-2.61,4.39-3.9.14-.13.32-.21.55-.35.85.57,1.68,1.13,2.01,2.27-.16.32-.31.67-.51,1.01-1.06,1.85-1.07,4.68.8,6.7,1.78,1.92,4.54,2.33,6.6.6,1.13-.95,1.75-2.21,1.85-3.71.08-1.24-.19-2.44-.53-3.61-.28-.99-.65-1.95-.94-2.94-.57-1.88-.99-3.78-.93-5.77.08-2.84,1.31-5.05,3.44-6.85,1.28-1.08,2.78-1.64,4.4-1.88,1.54-.22,3.02.18,4.44.76,1.83.75,3.45,1.86,4.9,3.19,1.52,1.39,2.92,2.9,4.14,4.56.26.35.58.67.85,1.01.21.27.43.53.6.83.37.68.33,1.16-.23,1.74-1.23,1.27-2.48,2.5-3.75,3.73-.16.16-.42.22-.66.33Z"/>
      <path class="cls-1" d="m140.75,65.75c.55-.9,1.32-1.28,2.2-1.65.26.22.55.41.76.66.31.38.57.8.83,1.21,1.2,1.85,2.4,3.7,3.6,5.55.24.37.53.71.52,1.19q-.58.77-1.82,1.41c-.64.07-1.1-.31-1.56-.68-.54-.44-1.12-.79-1.75-.99-.6-.05-1.09.18-1.55.45-.59.35-1.17.72-1.72,1.12-.65.47-.72.92-.31,1.65.07.13.16.25.24.37,1.42,2.17,2.83,4.36,4.26,6.52,1.21,1.83,1.75,2.04,3.93,1.59.98.5.99.51.9,1.63-.38.27-.8.6-1.25.88-3.05,1.86-5.92,3.99-8.97,5.71-.74-.14-.95-.62-1.1-1.25.12-.25.23-.58.41-.86.56-.83.51-1.67.06-2.49-.47-.86-.96-1.71-1.49-2.53-2.51-3.86-5.05-7.7-7.57-11.55-1.1-1.68-2.18-3.37-3.29-5.05-.32-.49-.7-.95-1.04-1.42-.37-.52-.89-.75-1.52-.75-.34,0-.69.03-1.03.02-.87-.03-1.17-.34-1.37-1.44.21-.19.43-.46.71-.64,3.07-2.01,6.15-4.01,9.23-6.02,1.4-.91,2.79-1.82,4.19-2.73,1.36-.88,2.71-1.76,4.07-2.63.24-.16.51-.27.82-.43.21.13.48.21.6.38,1.19,1.79,2.36,3.6,3.53,5.41.05.08.05.19.1.37-.12.19-.22.5-.44.65-.72.48-1.35,1.15-2.28,1.22-.66-.17-1.13-.62-1.66-.97-.79-.52-1.63-.88-2.61-.85-.65.02-1.27.1-1.83.46-1.36.87-2.72,1.74-4.07,2.62-.07.05-.11.16-.2.32.48,1.13,1.31,2.1,1.97,3.17.66,1.09,1.36,2.15,2.07,3.21.7,1.05,1.34,2.15,2.15,3.14.27-.05.49-.04.64-.14.78-.51,1.57-1,2.3-1.57.85-.67,1.11-1.59.84-2.63-.13-.52-.31-1.03-.49-1.62Z"/>
      <path class="cls-1" d="m124.63,91.54c.5-.93,1.31-1.61,2.19-2.19.19.08.37.09.45.19,1.82,2.11,3.64,4.22,5.45,6.35.18.21.27.51.43.82-.16.25-.29.51-.48.71-.58.6-1.18,1.18-1.78,1.75-1.49,1.41-2.99,2.82-4.5,4.22-2.29,2.14-4.59,4.26-6.88,6.4-.61.57-1.2,1.16-1.8,1.73-.32.31-.64.62-1.14.65-.51-.14-.78-.52-1-1.08.08-.25.16-.58.3-.89.4-.91.22-1.72-.39-2.46-.5-.6-1-1.21-1.54-1.78-2.59-2.74-5.2-5.46-7.8-8.19-1.79-1.88-3.57-3.77-5.35-5.66-.4-.43-.76-.9-1.16-1.32-.27-.28-.58-.52-.87-.79-.64-.58-1.39-.68-2.2-.54-.38.07-.75.18-1.1.26-.6-.2-.99-.52-1.07-1.17.08-.15.14-.35.27-.48,2.69-2.57,5.38-5.14,8.08-7.7.13-.13.34-.17.5-.25.73.1,1,.58,1.18,1.27-.17.49-.35,1.04-.55,1.62.14.77.49,1.45,1.04,2.04,1.41,1.5,2.8,3.01,4.21,4.51,1.78,1.89,3.56,3.77,5.34,5.66,1.48,1.57,2.96,3.13,4.43,4.71.73.79,1.44,1.6,2.18,2.38.23.24.53.4.79.59.73-.27,1.2-.79,1.7-1.23.7-.61,1.36-1.27,1.99-1.95.93-.99,1.32-2.14.94-3.51-.3-1.09-.7-2.14-1.26-3.12-.2-.34-.37-.69-.53-1.04-.06-.13-.04-.29-.07-.5Z"/>
      <path class="cls-1" d="m283.13,41.77c-.02-.68.14-1.12.66-1.46.18.01.43,0,.65.06,1.03.3,2.06.62,3.09.93,1.96.61,3.93,1.22,5.89,1.84.46.15.91.33,1.31.48.27,1.12.11,1.5-.75,1.8-.32.11-.66.17-.99.27-.52.15-.85.51-.94,1.03-.14.87-.39,1.72-.34,2.61.06,1.17-.06,2.35.19,3.51.08.38.04.78.05,1.17.02,1.57.02,3.14.04,4.7,0,.33.04.65.07.99.13-.03.19-.02.22-.05.64-.74,1.28-1.48,1.91-2.23,1.22-1.47,2.44-2.94,3.64-4.41.43-.53.89-1.05,1.25-1.63.33-.53.56-1.14.82-1.71.38-.86.18-1.62-.44-2.3-.26-.28-.49-.59-.73-.88.07-.62.2-1.11.79-1.43,2.68.68,5.3,1.63,7.97,2.41.18.05.33.2.46.28.32.62.08,1.08-.3,1.58-.27.11-.58.28-.9.35-.75.17-1.34.6-1.88,1.09-.4.36-.78.75-1.14,1.15-1.14,1.28-2.26,2.58-3.39,3.86-.97,1.1-1.95,2.2-2.92,3.3-1.33,1.5-2.65,3.02-3.98,4.52-1.04,1.17-2.08,2.34-3.14,3.5-1.15,1.27-2.32,2.52-3.49,3.77-.84.9-1.84,1.61-2.85,2.3-1.24.86-2.64,1.29-4.12,1.43-.47.05-.97-.09-1.45-.16-1.22-.19-2.36-.63-3.45-1.19-.35-.18-.67-.41-.84-.89.3-1.42.76-2.86,1.27-4.28.12-.34.32-.6.81-.72.27.07.65.15,1.02.27.69.22,1.21.61,1.37,1.38.07.33.22.64.33.93.78.69,1.65.71,2.52.42.5-.17.99-.43,1.42-.75,1.26-.94,2.34-2.07,3.41-3.26-.28-.39-.52-.74-.72-1.03-.46-3.05-.35-6.04-.41-9.02-.02-.88.01-1.76-.18-2.63-.09-.42-.06-.88-.07-1.32-.02-1.62,0-3.23-.06-4.85-.04-1.12-.17-2.24-.31-3.36-.07-.58-.31-1.13-.72-1.58-.23-.25-.43-.52-.66-.8Z"/>
      <path class="cls-1" d="m255.06,59.23c-.61.54-1.27.53-1.89.43-1.85-.3-3.71-.17-5.57-.23-.24,0-.5,0-.73-.06-.23-.06-.43-.19-.59-.27-.47-.79,0-1.62-.3-2.35-.36-.19-.58.07-.78.24-.88.71-1.82,1.33-2.85,1.79-1.22.54-2.48.95-3.83.89-1.68-.08-3.29-.41-4.7-1.44-1.36-.99-2-2.36-2.19-3.99-.29-2.55.81-4.45,2.79-5.94,1.07-.81,2.31-1.26,3.58-1.64,2.17-.64,4.38-.99,6.63-1.15.28-.02.56-.1.82-.15.09-.19.2-.31.21-.44.09-1.47.12-2.93-.22-4.38-.21-.88-.56-1.66-1.37-2.17-.38-.24-.77-.42-1.23-.42-.05,0-.1,0-.15,0-2.22-.22-3.29.74-4.12,2.76-.05.13-.06.29-.1.43-.32,1.07-.91,1.5-2.05,1.5-.15,0-.29,0-.44-.03-.77-.1-1.54-.21-2.37-.33-.09-.28-.24-.55-.25-.82-.03-.88,0-1.76,0-2.64,0-.67.3-1.12.92-1.36,1.28-.49,2.55-1.02,3.85-1.43,2.3-.72,4.65-1.13,7.08-1.06,1.43.04,2.82.32,4.15.85,1.44.57,2.43,1.6,2.99,3.05.37.97.55,1.97.54,3.01-.03,3.38-.03,6.76-.04,10.14,0,.98.01,1.96-.01,2.94-.03,1.2.42,2.05,1.56,2.57.86.39.87.55.65,1.7Zm-9.43-10.69c-.22-.1-.38-.24-.56-.25-1.55-.16-2.99.25-4.37.92-.09.04-.17.1-.24.16-1.71,1.34-2,2.87-1.6,4.82.17.83.79,1.37,1.61,1.54,2.89.58,5.02-1.37,5.02-3.69,0-1.11.09-2.23.14-3.5Z"/>
      <path class="cls-1" d="m182.89,68.7c-.16.1-.32.22-.49.32-.72.42-6.64,2.92-7.43,3.13-.5-.2-.64-.69-.84-1.13-.18-.39-.2-.87-.65-1.22-.12.12-.28.23-.37.38-.22.38-.4.79-.6,1.18-.71,1.37-1.71,2.51-2.91,3.46-1.47,1.16-3.22,1.72-5.03,1.88-1.74.15-3.25-.6-4.4-1.94-.38-.44-.69-.95-.96-1.47-.66-1.25-.89-2.55-.52-3.96.56-2.13,1.81-3.77,3.45-5.16,1.53-1.3,3.18-2.45,4.94-3.42.42-.23.81-.53,1.23-.81,0-.76-.41-1.34-.65-1.96-.42-1.05-1.02-2-1.82-2.82-.78-.8-1.68-1.19-2.78-.93-1.25.29-2.28.87-2.76,2.16-.34.9-.38,1.8-.22,2.74.18,1.03.05,1.34-.81,1.79-.95.49-1.9,1-3,1.16-.85-.43-.95-1.34-1.35-2.04-.38-.66-.46-1.39-.27-2.14.52-1.09,1.39-1.89,2.26-2.67,1.46-1.3,2.94-2.57,4.66-3.55,1.15-.66,2.36-1.19,3.61-1.62.93-.32,1.89-.43,2.89-.44,1.82-.02,3.21.77,4.3,2.14.45.57.85,1.21,1.16,1.86.99,2.07,1.94,4.17,2.9,6.26.84,1.82,1.66,3.65,2.5,5.47.16.35.34.71.57,1.02.43.57.98.9,1.76.83,1.08-.09,1.21.05,1.61,1.5Zm-13.38-6.23c-1.49.61-2.61,1.45-3.57,2.51-1.45,1.6-1.23,4.2-.13,5.55.32.4.69.7,1.18.8,1.3.25,2.45-.1,3.29-1.11,1.07-1.28,1.39-2.77.83-4.38-.4-1.15-.98-2.21-1.61-3.37Z"/>
      <path class="cls-1" d="m221.92,36.94c.32,1.5.73,3.15.65,4.91-.28.18-.49.39-.76.47-.47.14-.96.2-1.44.27-.52.08-.97-.1-1.31-.5-.22-.26-.41-.55-.6-.84-.95-1.42-2.89-2.31-4.93-1.54-.94.36-1.61.91-1.86,1.9-.05.19-.11.38-.15.53.07,1.63,1.07,2.48,2.44,3.01.64.25,1.3.42,1.96.63,1.17.37,2.33.74,3.5,1.1,1.65.52,2.95,1.55,3.98,2.9,1.12,1.48,1.5,3.21,1.18,5.01-.34,1.89-1.28,3.47-2.9,4.6-1.69,1.18-3.61,1.71-5.6,2.07-2.58.46-5.17.26-7.76.29-.24,0-.49-.01-.73-.07-.4-.09-.7-.34-.89-.71-.09-.17-.17-.36-.2-.55-.16-1.31-.32-2.62-.45-3.93-.02-.18.07-.38.12-.58.72-.53,1.54-.64,2.36-.62.3,0,.65.24.88.46.35.33.62.75.92,1.14.48.62.97,1.25,1.74,1.54,1.6.59,3.17.47,4.68-.33.4-.21.7-.56.86-.98.51-1.34.38-3.2-1.27-4.09-1.31-.7-2.72-1.13-4.13-1.51-1.44-.38-2.77-.97-4.05-1.69-1.66-.94-2.78-2.34-3.17-4.21-.36-1.74-.1-3.38.97-4.89.86-1.21,2.02-2,3.29-2.63,1.59-.79,3.29-1.19,5.05-1.45,2.1-.31,4.2-.29,6.3-.28.44,0,.89,0,1.32.55Z"/>
      <path class="cls-1" d="m276.04,28.51c.12.92-.21,1.82-.34,2.73-.31,2.18-.71,4.34-1.08,6.51-.45,2.65-.92,5.3-1.35,7.95-.34,2.07-.66,4.15-.98,6.23-.23,1.5-.41,3-.7,4.49-.18.93-.2,1.84-.11,2.86.52.56,1.08,1.16,1.56,1.68.08.62-.08,1-.44,1.29-.44.21-.89.14-1.32.07-2.6-.44-5.2-.9-7.8-1.35-.53-.09-1.07-.15-1.59-.27-.4-.09-.73-.35-.76-.79-.03-.47.16-.87.58-1.11.25-.15.53-.24.81-.33.78-.25,1.22-.83,1.4-1.57.24-1,.43-2.01.61-3.02.52-3.04,1.01-6.08,1.53-9.11.55-3.23,1.13-6.45,1.65-9.69.2-1.25.44-2.5.42-3.79-.01-1-.21-1.85-1.22-2.3-.04-.02-.09-.05-.13-.07-.76-.54-.79-.95-.12-1.83.75-.19,1.54-.14,2.31-.04,2.04.25,4.07.56,6.1.85.35.05.67.15.96.62Z"/>
      <path class="cls-1" d="m200.1,63.89c-.14.08-.3.2-.48.25-3.2.89-6.4,1.78-9.61,2.65-.23.06-.48.04-.67.06-.52-.34-.67-.77-.59-1.39.17-.2.38-.46.61-.71.65-.75.93-1.57.65-2.57-.51-1.84-.96-3.69-1.46-5.53-.74-2.73-1.51-5.46-2.26-8.19-.08-.28-.18-.56-.28-.84-.36-1.01-.98-1.67-2.12-1.72-.24-.01-.49-.08-.7-.19-.42-.22-.64-.6-.62-1.08.02-.44.28-.72.69-.85.79-.26,1.58-.52,2.37-.76,1.64-.49,3.28-.98,4.92-1.45.27-.08.57-.09.77-.11.67.27.8.82.94,1.33.6,2.16,1.19,4.33,1.79,6.5.9,3.25,1.8,6.5,2.72,9.74.16.56.4,1.1.6,1.65.26.69.73,1.15,1.47,1.3.1.02.19.03.29.05,1.09.31,1.24.57.97,1.87Z"/>
      <path class="cls-1" d="m188.92,32.64c.15.19.32.33.37.5.53,1.52.94,3.07,1.27,4.71-.19.2-.36.51-.59.58-1.78.51-3.57.97-5.36,1.44-.04.01-.09-.02-.34-.07-.01-.02-.14-.17-.23-.34-.34-.65-1.13-3.54-1.37-5.02.21-.17.44-.48.73-.57,1.49-.45,3-.86,4.51-1.25.31-.08.67,0,1,.02Z"/>
      <path class="cls-1" d="m179.68,351.42c.77-.08,1.28.13,1.78.26,4.4,1.16,8.8,2.33,13.19,3.5,4.4,1.17,8.83,2.2,13.3,3.03,2.31.42,4.64.7,6.96,1.03,1.35.19,2.71.34,4.07.5.05,0,.1.01.15.02,1.81.11,3.61.27,5.42.31,2.55.05,5.1.07,7.64,0,2.24-.06,4.49-.21,6.72-.49,1.11-.14,2.24-.21,3.35-.34,1.75-.21,3.5-.39,5.23-.67,3.33-.54,6.64-1.17,9.92-1.97,5.57-1.36,11.02-3.08,16.38-5.14,4.76-1.83,9.36-4.02,13.85-6.42,5.14-2.75,10.06-5.87,14.77-9.32,3.08-2.25,6.07-4.63,9-7.08,1.31-1.1,2.55-2.29,3.82-3.44.76-.69,1.53-1.37,2.27-2.08.67-.64,1.31-1.32,1.96-1.99.37-.39.71-.81,1.08-1.2,2.54-2.59,4.86-5.36,7.1-8.22,3.12-3.98,5.93-8.16,8.49-12.51,2.08-3.55,3.93-7.22,5.6-10.99.43-.98.96-1.93,1.44-2.89.11-.22.27-.42.35-.64.29-.74.05-1.48-.64-1.92-.28-.18-.61-.29-.89-.41-.8.12-1.45.45-2.07.85-2.9,1.9-6.09,3.12-9.38,4.12-2.26.68-4.58,1.04-6.9,1.37-.63.09-1.27.06-1.91.07-.88.01-1.76,0-2.65,0-3.31.05-6.53-.55-9.67-1.52-4.78-1.48-9.11-3.8-12.97-7.01-3-2.49-5.57-5.35-7.79-8.55-1.63-2.35-2.96-4.85-4.11-7.45-1.21-2.74-2.07-5.6-2.65-8.54-.34-1.73-.57-3.47-.85-5.21,0-.05-.01-.1-.01-.15-.1-2-.22-4-.28-6.01-.02-.78.11-1.56.17-2.34.02-.24.05-.49.05-.73,0-3.64.63-7.2,1.36-10.75,1.07-5.25,2.79-10.29,4.93-15.2,2.25-5.17,4.88-10.15,7.84-14.95,1.44-2.33,2.92-4.64,4.44-6.93,2.47-3.71,5.12-7.29,7.92-10.76,2.05-2.56,4.13-5.09,6.23-7.61.94-1.13,1.95-2.2,2.93-3.29.88-.99,1.75-1.98,2.65-2.95.43-.47.9-.9,1.37-1.33.78-.72,1.72-1.13,2.73-1.35,1.16-.25,2.26.06,3.22.7,1.01.68,2.01,1.41,2.89,2.25,1.94,1.87,3.83,3.78,5.63,5.79,2.55,2.85,5,5.77,7.27,8.84,2.57,3.47,4.94,7.06,7.04,10.83,1.15,2.05,2.31,4.1,3.35,6.2,1.78,3.6,3.36,7.29,4.77,11.05,1.92,5.1,3.37,10.33,4.56,15.63.56,2.48,1.06,4.97,1.35,7.5.22,1.84.57,3.67.77,5.51.19,1.75.25,3.51.38,5.27.04.58.11,1.17.15,1.75.04.44.08.88.08,1.32,0,2.3,0,4.61,0,6.91,0,.44-.05.88-.09,1.32-.05.54-.11,1.07-.15,1.6-.13,1.71-.19,3.42-.38,5.12-.2,1.8-.54,3.57-.76,5.37-.32,2.67-.89,5.3-1.43,7.94-.95,4.61-2.21,9.13-3.73,13.58-1.17,3.43-2.51,6.79-3.99,10.1-2.76,6.2-6.13,12.04-10.01,17.59-1.74,2.49-3.59,4.89-5.52,7.23-1.84,2.23-3.84,4.31-5.8,6.44-1.83,1.99-3.85,3.76-5.79,5.63-1.41,1.36-2.92,2.61-4.45,3.83-2.41,1.92-4.84,3.82-7.34,5.63-3.33,2.41-6.77,4.67-10.37,6.67-2.05,1.14-4.1,2.31-6.2,3.35-4.52,2.23-9.16,4.2-13.93,5.86-4.26,1.49-8.57,2.75-12.96,3.78-2.86.67-5.72,1.29-8.63,1.7-1.6.23-3.18.55-4.78.76-1.31.18-2.64.2-3.94.4-2.04.32-4.11.13-6.14.49-.29.05-.59.04-.88.04-3.09,0-6.17,0-9.26,0-.44,0-.88-.08-1.31-.12-.34-.03-.68-.12-1.02-.1-1.87.07-3.71-.22-5.56-.38-1.94-.16-3.87-.53-5.81-.76-2.29-.27-4.53-.74-6.79-1.18-5.34-1.04-10.56-2.51-15.71-4.28-3.62-1.24-7.17-2.64-10.62-4.27-2.92-1.38-5.82-2.81-8.72-4.24-.57-.28-1.11-.62-1.63-.98-.79-.55-1.24-1.34-1.49-2.43Zm167.19-127.85c-.03-1.56.06-3.13-.24-4.68-.22-1.15-.23-2.34-.44-3.49-.94-5.08-2.6-9.93-4.9-14.56-1.38-2.76-2.94-5.42-4.61-8.01-2.79-4.32-5.96-8.36-9.17-12.38-.4-.5-.86-.93-1.43-1.24-.98-.55-1.9-.55-2.98.34-.49.4-.91.89-1.31,1.38-1.09,1.32-2.15,2.67-3.23,3.99-2.48,3.03-4.83,6.16-7.05,9.39-2.17,3.15-4.06,6.46-5.7,9.92-1.61,3.42-2.92,6.94-3.71,10.65-.35,1.63-.59,3.27-.69,4.93-.16,2.7.05,5.37.56,8.03.94,4.88,2.79,9.35,5.94,13.25,2.39,2.96,5.28,5.21,8.75,6.74,1.85.82,3.81,1.25,5.82,1.4,1.95.15,3.91.06,5.85-.31,4.58-.87,8.43-3.06,11.61-6.43,1.04-1.1,1.96-2.31,2.8-3.58,2.65-3.98,3.9-8.39,4.11-13.13.03-.73,0-1.47,0-2.2Z"/>
      <path class="cls-1" d="m371.77,229.42c-.39-.29-.41-.74-.52-1.16-.79-3.18-1.59-6.36-2.53-9.51-1.12-3.76-2.4-7.45-3.86-11.09-1.53-3.82-3.25-7.56-5.17-11.2-1.33-2.51-2.75-4.97-4.25-7.38-2.25-3.63-4.68-7.12-7.3-10.48-1.77-2.28-3.62-4.5-5.53-6.67-2.79-3.16-5.82-6.09-8.82-9.05-2.06-2.03-4.25-3.91-6.51-5.72-1.91-1.53-3.82-3.06-5.78-4.53-3.58-2.67-7.29-5.12-11.19-7.3-1.88-1.05-3.75-2.13-5.68-3.09-3.73-1.86-7.54-3.51-11.45-4.97-3.81-1.43-7.7-2.62-11.63-3.62-3.6-.92-7.24-1.7-10.92-2.23-1.84-.26-3.67-.57-5.51-.8-1.45-.18-2.92-.25-4.38-.37-.78-.07-1.56-.15-2.33-.21-.34-.03-.68-.05-1.03-.05-8.13,0-16.27-.01-24.4.01-1.51,0-3.03.17-4.54.26-.61.04-1.13.31-1.61.66-.41.3-.64.74-.7,1.25-.06.47.09.88.48,1.17.27.2.58.36.89.52,3.58,1.84,6.93,4.04,10.01,6.65,3.23,2.74,6.11,5.79,8.43,9.34,2.1,3.22,3.74,6.66,4.68,10.4.39,1.56.71,3.14.82,4.76.07,1.07.25,2.13.22,3.21-.11,4.09-.8,8.07-2.31,11.89-1.73,4.37-4.21,8.27-7.22,11.87-1.42,1.7-2.95,3.28-4.57,4.77-2.53,2.32-5.26,4.4-8.19,6.19-1.17.72-2.35,1.41-3.55,2.07-4.94,2.69-10.18,4.55-15.66,5.78-2.77.63-5.55,1.17-8.37,1.52-1.7.21-3.39.41-5.09.59-3.65.4-7.31.59-10.98.57-.54,0-1.07.1-1.61.12-.73.02-1.46.03-2.2.01-.63-.02-1.27-.12-1.9-.14-1.67-.03-3.34.05-5-.08-2.09-.16-4.2-.14-6.28-.47-.14-.02-.29-.03-.44-.04-2.4-.06-4.78-.38-7.15-.68-4.02-.52-8.03-1.14-12.02-1.88-3.37-.63-6.71-1.35-10.04-2.13-.99-.23-1.97-.59-2.92-.98-.53-.22-1.04-.56-1.48-.93-1.23-1.03-1.63-2.38-1.42-3.95.39-2.98,1.42-5.79,2.39-8.61.48-1.39,1.02-2.75,1.53-4.13,1.96-5.29,4.35-10.39,7.03-15.34,2.89-5.35,6.19-10.44,9.93-15.25,2.41-3.09,4.91-6.1,7.66-8.9.62-.63,1.15-1.34,1.79-1.94,1.96-1.84,3.94-3.66,5.95-5.46,3.72-3.34,7.74-6.3,11.92-9.05,4.88-3.21,9.98-6.02,15.27-8.47,4.84-2.25,9.82-4.19,14.91-5.8,5.04-1.59,10.15-2.94,15.35-3.93,1.83-.35,3.64-.73,5.48-1.03,1.74-.29,3.48-.49,5.23-.73,1.11-.15,2.22-.33,3.34-.47,1.02-.13,2.04-.3,3.06-.33,2.25-.06,4.48-.42,6.74-.38,3.48.06,6.96,0,10.43.08,1.75.04,3.5.29,5.25.46.97.09,1.94.22,2.91.33,3.99.43,7.93,1.18,11.84,2.08,3.63.84,7.21,1.84,10.72,3.07,4.34,1.52,8.61,3.25,12.75,5.27,5.47,2.67,10.71,5.73,15.71,9.18,3.35,2.31,6.61,4.73,9.72,7.35,1.8,1.51,3.59,3.03,5.28,4.66,1.02.99,2.09,1.92,3.11,2.91,2.35,2.29,4.53,4.74,6.7,7.2,1.97,2.25,3.82,4.59,5.61,6.98,1.97,2.62,3.83,5.33,5.55,8.12,1.9,3.09,3.71,6.22,5.37,9.44,2.57,4.97,4.68,10.13,6.32,15.48,1.12,3.65,2.07,7.35,2.67,11.12.38,2.36.76,4.73,1.07,7.1.19,1.5.31,3.02.35,4.53.07,2.54.44,5.08.27,7.62-.07,1.12-.18,2.24-.28,3.36-.02.26-.16.46-.45.52Zm-204.24-21.64c1.13,0,2.26.06,3.38-.02,1.61-.11,3.2-.38,4.81-.48,1.62-.1,3.21-.34,4.8-.59,4.93-.78,9.6-2.31,13.94-4.8,3.22-1.85,6-4.23,8.28-7.16,1.67-2.14,3-4.47,3.98-7,.67-1.74,1.21-3.54,1.35-5.39.21-2.89.09-5.76-.81-8.57-.95-2.94-2.38-5.57-4.47-7.84-1.7-1.86-3.68-3.37-5.86-4.62-3.87-2.21-8.02-3.34-12.47-3.34-.68,0-1.36.18-2.04.22-1.87.11-3.67.58-5.44,1.16-2.86.94-5.48,2.34-8.07,3.86-3.65,2.14-6.99,4.71-10.11,7.54-2.91,2.63-5.55,5.52-7.96,8.63-2.65,3.41-5.04,6.98-7.18,10.74-1.67,2.94-3.25,5.92-4.61,9.02-.18.4-.35.82-.44,1.24-.34,1.72.11,3.14,1.81,3.88.58.25,1.18.49,1.8.62,1.62.35,3.26.63,4.89.95,3.17.63,6.38.98,9.58,1.35,1.89.22,3.8.26,5.71.37.2.01.4-.02.59.02,1.5.33,3.02.19,4.54.2Z"/>
      <path class="cls-1" d="m165.6,133.92c.23.18.22.39.11.55-.19.28-.39.57-.65.78-2.86,2.32-5.48,4.89-8.07,7.49-1.07,1.08-2.16,2.14-3.19,3.25-2.03,2.19-3.96,4.47-5.83,6.79-1.99,2.48-3.9,5.03-5.66,7.69-1.46,2.2-2.85,4.46-4.19,6.73-1.14,1.94-2.24,3.91-3.23,5.93-1.84,3.73-3.53,7.53-4.97,11.45-1.76,4.78-3.3,9.63-4.45,14.6-.67,2.91-1.26,5.83-1.67,8.79-.27,1.94-.57,3.87-.8,5.81-.17,1.5-.26,3.02-.35,4.53-.07,1.07.01,2.15-.24,3.22-.08.33-.04.68-.04,1.03,0,3.04-.12,6.08.04,9.11.11,2.09.09,4.21.44,6.28.03.19.05.39.05.58.07,2.4.52,4.76.84,7.13.54,4.08,1.4,8.1,2.42,12.08,1.32,5.13,2.97,10.14,4.96,15.05,1.29,3.18,2.67,6.32,4.26,9.35,2.72,5.17,5.84,10.08,9.53,14.62,2.01,2.48,4.19,4.79,6.48,7.01.31.3.58.68,1.19.71.13-.17.39-.36.45-.6.11-.42.12-.87.13-1.31.01-1.22-.03-2.45,0-3.67.08-4.43.78-8.77,2.26-12.95,1.49-4.19,3.62-8.02,6.46-11.46,1.85-2.24,3.92-4.23,6.24-5.98,2.57-1.93,5.39-3.38,8.38-4.51,2.75-1.04,5.61-1.73,8.53-2.13,2.33-.32,4.66-.57,7.01-.53,3.04.06,6.04.39,9.02.99,5.67,1.14,10.98,3.23,16.03,6,3.31,1.81,6.43,3.92,9.33,6.36,2.17,1.83,4.32,3.7,6.26,5.77,1.41,1.5,2.74,3.06,4.12,4.59,1.74,1.93,3.32,3.99,4.87,6.07,2.49,3.34,4.81,6.8,6.88,10.41,1.56,2.72,3.11,5.45,4.52,8.24,1.79,3.54,3.39,7.17,4.92,10.83,2.1,5.02,3.98,10.11,5.76,15.25.42,1.2.85,2.4,1.25,3.61.31.93.53,1.88.52,2.88-.02,1.52-.58,2.73-1.8,3.68-1.19.93-2.56,1.42-3.97,1.85-2.53.76-5.14,1.23-7.72,1.76-1.87.38-3.74.75-5.62,1.05-1.78.29-3.58.49-5.38.72-1.41.18-2.81.34-4.22.5-.15.02-.29.03-.44.04-1.95.1-3.91.24-5.86.3-1.91.06-3.82.04-5.73.04-1.22,0-2.46.08-3.67-.06-1.85-.23-3.71-.14-5.55-.45-1.11-.19-2.24-.22-3.35-.36-1.7-.21-3.4-.4-5.09-.68-3.33-.56-6.63-1.25-9.9-2.09-5.27-1.36-10.42-3.08-15.45-5.16-3.03-1.25-6.04-2.57-8.96-4.07-3.4-1.74-6.72-3.63-9.99-5.6-3.9-2.35-7.68-4.9-11.3-7.67-2.06-1.57-4.04-3.25-6.04-4.9-2.77-2.27-5.35-4.74-7.84-7.31-2.19-2.25-4.23-4.62-6.24-7.03-2.92-3.5-5.62-7.17-8.04-11.03-1.43-2.28-2.74-4.63-4.08-6.97-1.17-2.04-2.18-4.17-3.15-6.3-1.77-3.88-3.29-7.85-4.63-11.9-1.5-4.56-2.64-9.22-3.57-13.93-.42-2.11-.66-4.25-.99-6.37-.27-1.69-.44-3.39-.6-5.09-.14-1.42-.12-2.84-.29-4.24-.37-3.13-.16-6.26-.21-9.39-.01-.73.11-1.46.17-2.19.02-.2.06-.39.05-.58-.09-1.96.24-3.91.37-5.86.12-1.8.37-3.6.63-5.39.44-3.05.95-6.09,1.66-9.09.66-2.76,1.36-5.51,2.11-8.25.88-3.22,2.05-6.33,3.26-9.43.64-1.64,1.34-3.26,2.08-4.86,2.79-6.01,6.05-11.76,9.88-17.17,2.12-3,4.37-5.9,6.76-8.69,2.04-2.38,4.24-4.61,6.46-6.83,2.99-2.98,6.18-5.72,9.48-8.34,4.61-3.66,9.5-6.92,14.54-9.94.63-.38,1.28-.73,1.92-1.07.11-.06.27-.04.38-.05Zm43.55,156.53c-1.03.04-2.07,0-3.08.15-1.3.2-2.6.5-3.86.87-2.6.76-5.05,1.85-7.28,3.41-3.09,2.17-5.35,5-6.92,8.4-1.03,2.23-1.75,4.57-2.05,7.02-.22,1.75-.25,3.53,0,5.27.49,3.27,1.55,6.36,3.34,9.17.84,1.32,1.7,2.63,2.74,3.81,1.97,2.23,4.31,3.99,6.88,5.45,3.76,2.14,7.75,3.74,11.92,4.89,5.1,1.41,10.32,2.21,15.55,2.94,2.27.32,4.55.58,6.83.87.82.1,1.65.22,2.47.29.39.04.79.04,1.17-.01,2.03-.29,4.06-.59,6.09-.9,1.69-.26,3.39-.49,5.1-.51,1.05-.01,2.04-.26,3-.62,1.5-.56,2.2-1.7,2.31-3.26.09-1.3-.26-2.53-.73-3.72-.93-2.37-1.88-4.73-2.89-7.06-2.14-4.95-4.68-9.7-7.61-14.23-1.94-3-4.04-5.89-6.36-8.62-1.43-1.68-2.95-3.28-4.61-4.72-3.21-2.77-6.79-4.97-10.74-6.54-3.62-1.43-7.35-2.38-11.28-2.36Z"/>
      <path class="cls-1" d="m267.5,166c.12-2.61.71-4.9,2-7,1.82-2.98,4.33-5.15,7.56-6.48,1.32-.55,2.71-.86,4.14-.87.98,0,1.97-.02,2.93.14,3.08.52,5.68,1.98,7.93,4.16,1.95,1.89,3.38,4.07,4.07,6.68.27,1.03.52,2.12.5,3.17-.07,2.95-.92,5.67-2.8,8.02-2.37,2.96-5.47,4.7-9.14,5.44-4.23.84-8.2.07-11.73-2.41-2.11-1.49-3.73-3.45-4.53-5.99-.52-1.65-.75-3.33-.93-4.87Z"/>
      <path class="cls-1" d="m275.68,310.64c-.06-2.26.49-4.39,1.47-6.38,1.12-2.29,2.78-4.14,5.02-5.41,2.3-1.3,4.77-1.96,7.43-1.98,2.24-.02,4.41.33,6.42,1.28,4.16,1.96,7.04,5.09,8.18,9.61.69,2.74.34,5.45-.79,8.02-1.54,3.51-4.07,6.12-7.61,7.6-5.13,2.13-10.1,1.7-14.62-1.59-2.96-2.16-4.75-5.17-5.38-8.81-.13-.77-.09-1.56-.12-2.34Z"/>
      <path class="cls-1" d="m150.4,228.67c2.63-.08,4.95.43,7.15,1.48,3.58,1.72,5.81,4.54,6.81,8.36.26,1,.38,2.01.37,3.05-.02,1.42.04,2.83-.32,4.23-1.04,4.09-3.46,7.06-7.16,9.03-3.36,1.79-6.91,2.05-10.54,1.18-2.42-.58-4.57-1.77-6.34-3.53-1.51-1.51-2.53-3.35-3.17-5.39-.45-1.45-.69-2.96-.77-4.47-.11-2.08.36-4.07,1.14-6,.65-1.62,1.57-3.07,2.8-4.26,1.45-1.41,3.19-2.44,5.16-2.99,1.65-.46,3.32-.87,4.88-.69Z"/>
      <path class="cls-1" d="m38.83,231.2c.05.83.01,1.65-.37,2.42-.39.79-.96,1.32-1.77,1.65-1.98.82-3.88.06-4.71-1.89-.73-1.72-.64-3.41.24-5.07.26-.49.63-.84,1.1-1.14,1.82-1.16,5.05-.47,5.51,2.71.06.43,0,.88,0,1.31Z"/>
    </g>
  </g>
</svg>